<?xml version="1.0" encoding="UTF-8" standalone="no"?>
<!-- Created with Inkscape (http://www.inkscape.org/) -->

<svg
   version="1.1"
   id="svg998"
   width="79.999969"
   height="75.824265"
   viewBox="0 0 79.999969 75.824265"
   sodipodi:docname="justice_hand_white.svg"
   inkscape:version="1.1.2 (08b2f3d93c, 2022-04-05)"
   xmlns:inkscape="http://www.inkscape.org/namespaces/inkscape"
   xmlns:sodipodi="http://sodipodi.sourceforge.net/DTD/sodipodi-0.dtd"
   xmlns="http://www.w3.org/2000/svg"
   xmlns:svg="http://www.w3.org/2000/svg">
  <defs
     id="defs1002" />
  <sodipodi:namedview
     id="namedview1000"
     pagecolor="#ffffff"
     bordercolor="#666666"
     borderopacity="1.0"
     inkscape:pageshadow="2"
     inkscape:pageopacity="0.0"
     inkscape:pagecheckerboard="0"
     showgrid="false"
     inkscape:zoom="1.1975485"
     inkscape:cx="-381.19542"
     inkscape:cy="0.41751962"
     inkscape:window-width="1920"
     inkscape:window-height="1016"
     inkscape:window-x="0"
     inkscape:window-y="27"
     inkscape:window-maximized="1"
     inkscape:current-layer="g1004"
     fit-margin-top="0"
     fit-margin-left="0"
     fit-margin-right="0"
     fit-margin-bottom="0" />
  <g
     inkscape:groupmode="layer"
     inkscape:label="Image"
     id="g1004"
     transform="translate(-206.77375,-200.9735)">
    <path
       style="fill:#fefefe;stroke-width:0.0518096"
       d="m 248.32896,276.75191 c -0.18522,-0.0245 -0.61654,-0.0682 -0.95848,-0.0974 -0.34194,-0.0291 -0.676,-0.0759 -0.74236,-0.10388 -0.0664,-0.028 -0.36944,-0.0642 -0.67353,-0.0805 -0.30409,-0.0163 -0.64079,-0.0625 -0.74821,-0.10286 -0.11453,-0.043 -0.38536,-0.0733 -0.65466,-0.0733 -0.30667,0 -0.50864,-0.0257 -0.60771,-0.0774 -0.10537,-0.055 -0.3144,-0.0775 -0.72135,-0.0777 -0.42318,0 -0.59925,-0.0202 -0.67353,-0.0763 -0.0739,-0.056 -0.252,-0.0765 -0.67352,-0.0777 -0.42153,-10e-4 -0.59954,-0.0217 -0.67353,-0.0777 -0.0736,-0.0557 -0.25049,-0.0765 -0.66093,-0.0777 -0.34734,-9.7e-4 -0.60338,-0.0261 -0.67353,-0.0658 -0.0633,-0.0359 -0.39261,-0.0768 -0.74731,-0.0928 -0.3909,-0.0176 -0.65821,-0.0526 -0.69685,-0.0912 -0.0405,-0.0405 -0.24202,-0.0626 -0.56936,-0.0626 -0.31561,0 -0.58035,-0.0281 -0.70202,-0.0745 -0.1104,-0.0421 -0.43477,-0.0821 -0.7456,-0.0918 -0.30265,-0.009 -0.58243,-0.043 -0.62173,-0.0745 -0.0393,-0.0315 -0.35643,-0.0685 -0.70475,-0.0822 -0.34833,-0.0137 -0.66308,-0.0485 -0.69944,-0.0772 -0.0363,-0.0288 -0.34126,-0.0653 -0.67755,-0.081 -0.33628,-0.0158 -0.63937,-0.0506 -0.67353,-0.0775 -0.0342,-0.0268 -0.32493,-0.0632 -0.64621,-0.0807 -0.32127,-0.0175 -0.63602,-0.0615 -0.69943,-0.0977 -0.0914,-0.0522 -1.2975,-0.0659 -5.81436,-0.0659 h -5.69906 l -0.0179,0.12952 c -0.0103,0.0712 -0.0506,0.14817 -0.0906,0.17096 -0.04,0.0227 -0.0727,0.0946 -0.0727,0.15958 0,0.12365 -0.44658,0.65384 -0.55074,0.65384 -0.0321,0 -0.0873,0.035 -0.12278,0.0777 -0.041,0.0494 -0.15544,0.0777 -0.31415,0.0777 -0.1373,0 -0.26405,0.0233 -0.28167,0.0518 -0.021,0.034 -1.98656,0.0518 -5.72801,0.0518 -3.76279,0 -5.696,-0.0176 -5.696,-0.0518 0,-0.0285 -0.0886,-0.0518 -0.19682,-0.0518 -0.17591,0 -0.20345,-0.0183 -0.25905,-0.17206 -0.0812,-0.22439 -0.0914,-22.05427 -0.0103,-22.05427 0.0285,0 0.0518,-0.0292 0.0518,-0.065 0,-0.0358 0.0758,-0.0999 0.16839,-0.14248 0.14621,-0.0672 0.93705,-0.0774 6.00733,-0.0774 4.60207,0 5.85266,0.0137 5.9037,0.0648 0.0357,0.0357 0.10983,0.0648 0.16485,0.0648 0.21601,0 0.6322,0.32283 0.76817,0.59581 0.0426,0.0855 0.11642,0.2331 0.16411,0.32801 0.0477,0.095 0.0867,0.21733 0.0867,0.272 0,0.0877 0.0392,0.0994 0.33042,0.0994 0.2305,0 0.34992,-0.0235 0.39491,-0.0777 0.0354,-0.0428 0.10583,-0.0777 0.15623,-0.0777 0.0505,0 0.10514,-0.035 0.12156,-0.0777 0.0164,-0.0428 0.0779,-0.0777 0.13669,-0.0777 0.0588,0 0.1203,-0.035 0.1367,-0.0777 0.0165,-0.0427 0.0739,-0.0777 0.1279,-0.0777 0.0539,0 0.0981,-0.0229 0.0981,-0.0509 0,-0.028 0.0566,-0.065 0.12576,-0.0824 0.0692,-0.0174 0.13839,-0.0645 0.15381,-0.10457 0.0154,-0.0401 0.0743,-0.073 0.1307,-0.073 0.0565,0 0.12131,-0.0291 0.1441,-0.0648 0.0227,-0.0357 0.15217,-0.12256 0.28752,-0.19321 0.13536,-0.0706 0.2461,-0.14456 0.2461,-0.16427 0,-0.0196 0.0699,-0.0512 0.15543,-0.0699 0.0855,-0.0187 0.15543,-0.0503 0.15543,-0.0699 0,-0.0197 0.11029,-0.0936 0.24518,-0.16427 0.13484,-0.0706 0.2764,-0.15758 0.31456,-0.19321 0.0382,-0.0357 0.11434,-0.0648 0.1693,-0.0648 0.055,0 0.0999,-0.0229 0.0999,-0.0508 0,-0.028 0.0639,-0.0669 0.14196,-0.0864 0.0781,-0.0197 0.173,-0.0666 0.21094,-0.10458 0.0379,-0.0379 0.10811,-0.0697 0.15594,-0.0706 0.0479,-9.8e-4 0.13222,-0.0359 0.18753,-0.0777 0.0553,-0.0418 0.13989,-0.0761 0.18795,-0.0761 0.0481,0 0.1164,-0.035 0.15187,-0.0777 0.0354,-0.0427 0.11707,-0.0777 0.18133,-0.0777 0.0642,0 0.14586,-0.035 0.18133,-0.0777 0.0354,-0.0427 0.11708,-0.0777 0.18134,-0.0777 0.0642,0 0.14586,-0.035 0.18134,-0.0777 0.0354,-0.0427 0.11547,-0.0777 0.17777,-0.0777 0.0623,0 0.15854,-0.0343 0.21385,-0.0761 0.0553,-0.0418 0.14784,-0.0768 0.20561,-0.0777 0.0577,-9.7e-4 0.15222,-0.0346 0.20989,-0.0751 0.0576,-0.0404 0.19133,-0.0897 0.29705,-0.10949 0.10571,-0.0198 0.20374,-0.0547 0.21782,-0.0775 0.014,-0.0228 0.12064,-0.0575 0.23681,-0.0772 0.11615,-0.0196 0.27339,-0.0681 0.34943,-0.10777 0.076,-0.0397 0.19769,-0.0722 0.27035,-0.0725 0.0727,-1.6e-4 0.15605,-0.0242 0.1853,-0.0535 0.0293,-0.0293 0.17846,-0.068 0.33157,-0.0862 0.15312,-0.0182 0.33785,-0.064 0.41051,-0.10195 0.0727,-0.0379 0.22539,-0.0698 0.33937,-0.071 0.11395,-0.001 0.2525,-0.0362 0.30781,-0.078 0.0657,-0.0497 0.22716,-0.0767 0.46629,-0.0777 0.23913,-0.001 0.40052,-0.028 0.46628,-0.0777 0.0734,-0.0555 0.24558,-0.076 0.63725,-0.076 0.3814,0 0.58121,-0.0231 0.69063,-0.0797 0.13344,-0.069 0.48499,-0.0776 2.63716,-0.0648 1.90117,0.0114 2.49839,0.0301 2.54793,0.0797 0.0427,0.0427 0.23312,0.0649 0.55951,0.065 0.33759,1.7e-4 0.54193,0.0249 0.64318,0.0777 0.085,0.0443 0.28542,0.0774 0.46933,0.0774 0.20198,0 0.35821,0.0282 0.4215,0.0761 0.0561,0.0425 0.21496,0.0769 0.35963,0.078 0.14248,0.001 0.32583,0.0368 0.40745,0.0793 0.0816,0.0425 0.22287,0.0774 0.3139,0.0774 0.0911,0 0.21077,0.0343 0.26608,0.0761 0.0553,0.0418 0.16699,0.0768 0.24817,0.0777 0.0811,9.7e-4 0.22107,0.0345 0.31085,0.0747 0.0898,0.0402 0.2507,0.0879 0.35756,0.10594 0.10686,0.0181 0.19428,0.0521 0.19428,0.0757 0,0.0235 0.0984,0.0586 0.21864,0.0778 0.12024,0.0192 0.23347,0.059 0.25158,0.0882 0.0182,0.0294 0.12921,0.0662 0.24688,0.0819 0.11767,0.0158 0.24046,0.0607 0.27286,0.0997 0.0325,0.0391 0.13481,0.071 0.22756,0.071 0.0928,0 0.19767,0.035 0.23316,0.0777 0.0354,0.0428 0.14039,0.0777 0.23314,0.0777 0.0928,0 0.19767,0.035 0.23314,0.0777 0.0354,0.0427 0.14039,0.0777 0.23315,0.0777 0.0928,0 0.19767,0.035 0.23314,0.0777 0.0373,0.0448 0.15021,0.0777 0.26701,0.0777 0.13222,0 0.21286,0.027 0.23234,0.0777 0.0183,0.0475 0.0967,0.0777 0.20191,0.0777 0.0946,0 0.20706,0.035 0.2498,0.0777 0.0427,0.0427 0.14766,0.0777 0.23315,0.0777 0.0855,0 0.1904,0.035 0.23314,0.0777 0.0427,0.0427 0.15813,0.0777 0.25641,0.0777 0.0983,0 0.20772,0.035 0.24319,0.0777 0.0354,0.0428 0.14039,0.0777 0.23314,0.0777 0.0928,0 0.19697,0.0342 0.23159,0.0759 0.0547,0.0659 1.1906,0.0777 8.68189,0.0906 6.81011,0.0117 8.63251,0.0285 8.68368,0.0795 0.0361,0.0361 0.19175,0.0649 0.3523,0.0651 0.15814,0 0.35473,0.0353 0.43686,0.0782 0.0822,0.0429 0.23951,0.0923 0.34972,0.10994 0.11017,0.0176 0.20039,0.0505 0.20039,0.0731 0,0.0226 0.0744,0.0574 0.16545,0.0774 0.091,0.02 0.19756,0.0685 0.23684,0.10777 0.0393,0.0393 0.11349,0.0714 0.16498,0.0714 0.0514,0 0.12259,0.035 0.15806,0.0777 0.0354,0.0427 0.0974,0.0777 0.1375,0.0777 0.0401,0 0.0864,0.035 0.10286,0.0777 0.0165,0.0427 0.0747,0.0777 0.12953,0.0777 0.0549,0 0.11314,0.035 0.12952,0.0777 0.0163,0.0427 0.063,0.0777 0.10366,0.0777 0.0406,0 0.0872,0.035 0.10365,0.0777 0.0165,0.0427 0.0623,0.0777 0.10195,0.0777 0.0396,0 0.0722,0.035 0.0722,0.0777 0,0.0427 0.0291,0.0781 0.0648,0.0784 0.13828,0.001 1.07505,1.06342 1.07505,1.21876 0,0.0355 0.035,0.0782 0.0777,0.0945 0.0427,0.0164 0.0777,0.0619 0.0777,0.10114 0,0.0392 0.0417,0.10903 0.0926,0.15508 0.10308,0.0934 0.32036,0.0654 0.38924,-0.05 0.0227,-0.0382 0.0877,-0.0695 0.14411,-0.0695 0.0565,0 0.11609,-0.035 0.13249,-0.0777 0.0165,-0.0428 0.0594,-0.0777 0.0956,-0.0777 0.0362,0 0.0949,-0.035 0.13032,-0.0777 0.0354,-0.0427 0.10709,-0.0777 0.15922,-0.0777 0.0521,0 0.11337,-0.0291 0.13612,-0.0648 0.0227,-0.0357 0.158,-0.12305 0.30048,-0.19428 0.14248,-0.0712 0.27071,-0.14119 0.28495,-0.15543 0.0498,-0.0498 0.23454,-0.15816 0.39799,-0.23341 0.0906,-0.0417 0.17946,-0.0995 0.19734,-0.12848 0.0178,-0.0289 0.0753,-0.0526 0.12753,-0.0526 0.0522,0 0.10845,-0.035 0.12483,-0.0777 0.0165,-0.0427 0.0747,-0.0777 0.12953,-0.0777 0.0549,0 0.11315,-0.035 0.12952,-0.0777 0.0163,-0.0427 0.0746,-0.0777 0.12952,-0.0777 0.0549,0 0.11315,-0.035 0.12953,-0.0777 0.0165,-0.0427 0.0743,-0.0777 0.12872,-0.0777 0.0544,0 0.12794,-0.035 0.16341,-0.0777 0.0354,-0.0427 0.10571,-0.0777 0.15623,-0.0777 0.0505,0 0.10514,-0.035 0.12155,-0.0777 0.0165,-0.0427 0.0747,-0.0777 0.12952,-0.0777 0.0549,0 0.11315,-0.035 0.12952,-0.0777 0.0165,-0.0427 0.0747,-0.0777 0.12952,-0.0777 0.0549,0 0.11315,-0.035 0.12952,-0.0777 0.0165,-0.0427 0.0779,-0.0777 0.1367,-0.0777 0.0587,0 0.11949,-0.0329 0.1349,-0.073 0.0154,-0.0401 0.0902,-0.0887 0.16623,-0.10777 0.076,-0.0191 0.1501,-0.0503 0.16464,-0.0695 0.0419,-0.0551 0.22106,-0.1608 0.37614,-0.2219 0.0784,-0.0309 0.14248,-0.0749 0.14248,-0.0978 0,-0.0229 0.0641,-0.068 0.14247,-0.10011 0.18242,-0.0749 0.36844,-0.1828 0.44216,-0.25652 0.0318,-0.0318 0.0998,-0.0578 0.15106,-0.0578 0.0513,0 0.0933,-0.0217 0.0933,-0.0483 0,-0.0265 0.0513,-0.0646 0.11417,-0.0846 0.0627,-0.0199 0.14606,-0.0681 0.18504,-0.10709 0.039,-0.039 0.11337,-0.0709 0.16525,-0.0709 0.0519,0 0.10777,-0.035 0.12419,-0.0777 0.0165,-0.0427 0.0626,-0.0777 0.10286,-0.0777 0.0401,0 0.10205,-0.035 0.13749,-0.0777 0.0354,-0.0427 0.10583,-0.0777 0.15623,-0.0777 0.0505,0 0.10515,-0.035 0.12156,-0.0777 0.0163,-0.0428 0.0726,-0.0777 0.12471,-0.0777 0.0522,0 0.12089,-0.0261 0.15268,-0.0578 0.0637,-0.0637 0.23838,-0.16884 0.41122,-0.24762 0.0614,-0.028 0.12684,-0.0755 0.14554,-0.10583 0.0187,-0.0303 0.078,-0.055 0.13198,-0.055 0.0538,0 0.11663,-0.0291 0.13942,-0.0648 0.0227,-0.0357 0.15759,-0.12304 0.29956,-0.19429 0.14197,-0.0712 0.28356,-0.15283 0.31466,-0.18132 0.0311,-0.0285 0.14808,-0.0984 0.25996,-0.15543 0.11189,-0.057 0.22208,-0.13277 0.24487,-0.16839 0.0227,-0.0357 0.0985,-0.0648 0.16837,-0.0648 0.0698,0 0.12695,-0.0239 0.12695,-0.0531 0,-0.0293 0.0525,-0.0768 0.11657,-0.10583 0.17607,-0.0797 0.35163,-0.18494 0.41625,-0.24954 0.0318,-0.0318 0.0973,-0.0578 0.14552,-0.0578 0.0482,0 0.10114,-0.035 0.11753,-0.0777 0.0165,-0.0427 0.0888,-0.0777 0.16098,-0.0777 0.0721,0 0.13115,-0.0239 0.13115,-0.053 0,-0.0293 0.0524,-0.0762 0.11657,-0.10434 0.0641,-0.0282 0.18651,-0.0961 0.272,-0.15087 0.24979,-0.16003 0.98547,-0.52046 1.06599,-0.52225 0.0406,-9.7e-4 0.11908,-0.0359 0.1744,-0.0777 0.0553,-0.0418 0.18743,-0.0761 0.29359,-0.0761 0.1064,0 0.20252,-0.0286 0.21419,-0.0635 0.0202,-0.0607 0.80726,-0.14552 1.38632,-0.14945 0.49758,-0.003 1.39937,0.0891 1.46003,0.14982 0.0348,0.0348 0.14658,0.0632 0.24852,0.0632 0.10194,0 0.23134,0.032 0.28754,0.0711 0.0562,0.0391 0.17797,0.0875 0.27057,0.10777 0.0926,0.0201 0.16839,0.0581 0.16839,0.0843 0,0.0263 0.0361,0.0477 0.0803,0.0477 0.0881,0 0.46853,0.19492 0.58138,0.29791 0.0391,0.0357 0.10502,0.0648 0.1466,0.0648 0.0416,0 0.089,0.035 0.10549,0.0777 0.0164,0.0427 0.0506,0.0777 0.0761,0.0777 0.0255,0 0.0912,0.0408 0.14617,0.0906 0.17619,0.15989 0.25745,0.22018 0.29679,0.22018 0.0925,0 0.53588,0.5383 0.53588,0.65046 0,0.0663 0.0233,0.13498 0.0518,0.15259 0.0713,0.0441 0.0713,7.10561 0,7.14973 -0.0285,0.0176 -0.0518,0.0929 -0.0518,0.16725 0,0.10035 -0.096,0.22654 -0.37189,0.48914 -0.20454,0.19465 -0.38961,0.35389 -0.41128,0.35389 -0.0217,0 -0.11597,0.0699 -0.20957,0.15543 -0.0936,0.0855 -0.2091,0.15543 -0.2567,0.15543 -0.0476,0 -0.1,0.035 -0.11635,0.0777 -0.0163,0.0428 -0.0747,0.0777 -0.12953,0.0777 -0.0549,0 -0.11314,0.035 -0.12952,0.0777 -0.0163,0.0428 -0.0746,0.0777 -0.12952,0.0777 -0.0549,0 -0.11314,0.035 -0.12953,0.0777 -0.0165,0.0427 -0.0864,0.0777 -0.15543,0.0777 -0.0691,0 -0.13903,0.035 -0.15543,0.0777 -0.0163,0.0427 -0.076,0.0777 -0.13249,0.0777 -0.0565,0 -0.12131,0.0291 -0.1441,0.0648 -0.0478,0.0747 -0.19287,0.17069 -0.37714,0.24947 -0.0706,0.0302 -0.14061,0.071 -0.15543,0.0905 -0.0149,0.0195 -0.14312,0.0939 -0.28509,0.16513 -0.14198,0.0712 -0.28358,0.15285 -0.31467,0.18134 -0.0311,0.0285 -0.14772,0.0984 -0.25917,0.15543 -0.11143,0.057 -0.2338,0.13276 -0.27188,0.16839 -0.0381,0.0356 -0.11418,0.0648 -0.16918,0.0648 -0.055,0 -0.0999,0.022 -0.0999,0.049 0,0.0502 -0.0822,0.10034 -0.55695,0.33955 -0.1496,0.0754 -0.272,0.15871 -0.272,0.18513 0,0.0264 -0.0558,0.0481 -0.12398,0.0481 -0.0682,0 -0.1374,0.035 -0.1538,0.0777 -0.0165,0.0427 -0.0626,0.0777 -0.10286,0.0777 -0.0401,0 -0.10205,0.035 -0.13749,0.0777 -0.0354,0.0427 -0.10583,0.0777 -0.15623,0.0777 -0.0505,0 -0.10514,0.035 -0.12156,0.0777 -0.0163,0.0427 -0.076,0.0777 -0.13249,0.0777 -0.0564,0 -0.12131,0.0291 -0.1441,0.0648 -0.0374,0.0584 -0.19819,0.15493 -0.66311,0.398 -0.0855,0.0447 -0.16754,0.0973 -0.18239,0.11686 -0.0149,0.0195 -0.0848,0.0608 -0.15547,0.0914 -0.0706,0.0307 -0.19841,0.10171 -0.2839,0.1579 -0.0855,0.0561 -0.20562,0.1243 -0.26697,0.15147 -0.0614,0.0272 -0.12683,0.0742 -0.14553,0.10434 -0.0187,0.0303 -0.0693,0.055 -0.11234,0.055 -0.0431,0 -0.11338,0.035 -0.15607,0.0777 -0.0427,0.0427 -0.12019,0.0777 -0.17209,0.0777 -0.0519,0 -0.10778,0.035 -0.1242,0.0777 -0.0165,0.0427 -0.0626,0.0777 -0.10286,0.0777 -0.0401,0 -0.10205,0.035 -0.13749,0.0777 -0.0354,0.0427 -0.10583,0.0777 -0.15623,0.0777 -0.0504,0 -0.10514,0.035 -0.12156,0.0777 -0.0163,0.0428 -0.0779,0.0777 -0.13667,0.0777 -0.0587,0 -0.1203,0.035 -0.1367,0.0777 -0.0165,0.0428 -0.0533,0.0777 -0.0818,0.0777 -0.0286,0 -0.245,0.11657 -0.48088,0.25905 -0.23587,0.14247 -0.45477,0.25904 -0.48643,0.25904 -0.0317,0 -0.0576,0.021 -0.0576,0.0467 0,0.0257 -0.0641,0.073 -0.14248,0.10526 -0.18241,0.0749 -0.36845,0.1828 -0.44215,0.2565 -0.0318,0.0318 -0.0973,0.0578 -0.14552,0.0578 -0.0482,0 -0.10114,0.035 -0.11754,0.0777 -0.0163,0.0428 -0.0779,0.0777 -0.1367,0.0777 -0.0587,0 -0.12028,0.035 -0.13668,0.0777 -0.0165,0.0427 -0.0711,0.0777 -0.12156,0.0777 -0.0505,0 -0.12075,0.035 -0.15623,0.0777 -0.0354,0.0427 -0.0937,0.0777 -0.12953,0.0777 -0.0358,0 -0.0941,0.035 -0.12952,0.0777 -0.0354,0.0427 -0.10583,0.0777 -0.15624,0.0777 -0.0504,0 -0.10514,0.035 -0.12154,0.0777 -0.0163,0.0427 -0.076,0.0777 -0.13249,0.0777 -0.0565,0 -0.12133,0.0292 -0.14411,0.0648 -0.0227,0.0357 -0.15401,0.12308 -0.29161,0.19429 -0.45958,0.23784 -0.52574,0.27626 -0.59502,0.34554 -0.0378,0.0379 -0.0897,0.0689 -0.11515,0.0689 -0.0255,0 -0.21907,0.10491 -0.43029,0.23314 -0.21121,0.12823 -0.40771,0.23314 -0.43668,0.23314 -0.0289,0 -0.0661,0.035 -0.0825,0.0777 -0.0165,0.0427 -0.0743,0.0777 -0.12873,0.0777 -0.0544,0 -0.12791,0.035 -0.16338,0.0777 -0.0354,0.0428 -0.0937,0.0777 -0.12953,0.0777 -0.0358,0 -0.0941,0.035 -0.12952,0.0777 -0.0354,0.0428 -0.10583,0.0777 -0.15623,0.0777 -0.0505,0 -0.10514,0.035 -0.12155,0.0777 -0.0165,0.0427 -0.076,0.0777 -0.1325,0.0777 -0.0565,0 -0.12131,0.0291 -0.1441,0.0648 -0.0227,0.0356 -0.14635,0.11851 -0.27458,0.18414 -0.12823,0.0656 -0.30309,0.16446 -0.38857,0.21959 -0.0855,0.0551 -0.21372,0.12937 -0.28495,0.16496 -0.0712,0.0356 -0.16033,0.0942 -0.19799,0.13007 -0.0377,0.036 -0.10183,0.0654 -0.14248,0.0654 -0.0407,0 -0.0741,0.0233 -0.0741,0.0518 0,0.0285 -0.0314,0.0518 -0.0698,0.0518 -0.0384,0 -0.12355,0.0466 -0.18926,0.10365 -0.0657,0.057 -0.16004,0.10366 -0.20963,0.10366 -0.0496,0 -0.10354,0.035 -0.11996,0.0777 -0.0163,0.0428 -0.0743,0.0777 -0.12873,0.0777 -0.0544,0 -0.12792,0.035 -0.1634,0.0777 -0.0354,0.0428 -0.0966,0.0777 -0.13586,0.0777 -0.0393,0 -0.0714,0.0229 -0.0714,0.0509 0,0.028 -0.0574,0.0653 -0.12741,0.0829 -0.0701,0.0176 -0.15452,0.0647 -0.18768,0.10457 -0.0331,0.04 -0.1016,0.0727 -0.15201,0.0727 -0.0504,0 -0.10514,0.035 -0.12154,0.0777 -0.0165,0.0427 -0.0779,0.0777 -0.1367,0.0777 -0.0587,0 -0.12029,0.035 -0.13669,0.0777 -0.0165,0.0427 -0.0711,0.0777 -0.12156,0.0777 -0.0505,0 -0.12075,0.035 -0.15623,0.0777 -0.0354,0.0427 -0.0974,0.0777 -0.13749,0.0777 -0.0401,0 -0.0864,0.035 -0.10286,0.0777 -0.0163,0.0427 -0.0722,0.0777 -0.1242,0.0777 -0.0519,0 -0.12517,0.0295 -0.16283,0.0655 -0.0376,0.036 -0.17921,0.12343 -0.31456,0.1942 -0.13535,0.0708 -0.24609,0.1462 -0.24609,0.16762 0,0.0214 -0.0318,0.039 -0.0707,0.039 -0.0389,0 -0.13002,0.0466 -0.20246,0.10365 -0.0725,0.057 -0.16636,0.10366 -0.20869,0.10366 -0.0423,0 -0.0904,0.035 -0.10674,0.0777 -0.0165,0.0427 -0.0743,0.0777 -0.12872,0.0777 -0.0544,0 -0.12792,0.035 -0.16341,0.0777 -0.0354,0.0428 -0.0866,0.0777 -0.1136,0.0777 -0.0271,0 -0.0841,0.035 -0.12688,0.0777 -0.0427,0.0428 -0.12018,0.0777 -0.17209,0.0777 -0.0519,0 -0.10777,0.035 -0.12419,0.0777 -0.0163,0.0427 -0.0743,0.0777 -0.12873,0.0777 -0.0544,0 -0.12792,0.035 -0.1634,0.0777 -0.0354,0.0427 -0.0966,0.0777 -0.13586,0.0777 -0.0393,0 -0.0714,0.0229 -0.0714,0.0509 0,0.028 -0.0574,0.0653 -0.12739,0.0827 -0.0701,0.0176 -0.15453,0.0647 -0.18768,0.10458 -0.0332,0.0399 -0.1016,0.0726 -0.15201,0.0726 -0.0504,0 -0.10515,0.035 -0.12156,0.0777 -0.0165,0.0427 -0.0621,0.0777 -0.10137,0.0777 -0.0393,0 -0.16303,0.0641 -0.2748,0.14248 -0.11177,0.0784 -0.31928,0.20075 -0.46111,0.272 -0.14184,0.0712 -0.27001,0.14554 -0.28484,0.16513 -0.0149,0.0195 -0.0848,0.0603 -0.15543,0.0905 -0.1512,0.0647 -0.3034,0.1591 -0.40198,0.24946 -0.0389,0.0357 -0.10114,0.0648 -0.13832,0.0648 -0.0373,0 -0.0967,0.035 -0.13217,0.0777 -0.0354,0.0427 -0.10583,0.0777 -0.15623,0.0777 -0.0505,0 -0.10514,0.035 -0.12155,0.0777 -0.0163,0.0427 -0.0772,0.0777 -0.13507,0.0777 -0.0579,0 -0.10525,0.0217 -0.10525,0.0483 0,0.0266 -0.0514,0.0647 -0.11418,0.0846 -0.0627,0.0199 -0.14604,0.0681 -0.18502,0.10708 -0.039,0.039 -0.11338,0.0709 -0.16526,0.0709 -0.0519,0 -0.10777,0.035 -0.12418,0.0777 -0.0165,0.0428 -0.0864,0.0777 -0.15543,0.0777 -0.0691,0 -0.13903,0.035 -0.15544,0.0777 -0.0163,0.0427 -0.0758,0.0777 -0.13201,0.0777 -0.0562,0 -0.11458,0.02 -0.12973,0.0446 -0.0273,0.0441 -0.62395,0.34589 -1.27382,0.64421 -0.18522,0.085 -0.39864,0.18631 -0.47427,0.22509 -0.0757,0.0387 -0.18805,0.0705 -0.24981,0.0705 -0.0617,0 -0.14724,0.035 -0.18999,0.0777 -0.0427,0.0427 -0.14314,0.0777 -0.22309,0.0777 -0.08,0 -0.17442,0.035 -0.20989,0.0777 -0.0354,0.0427 -0.12576,0.0784 -0.20063,0.0793 -0.0749,8.1e-4 -0.18139,0.0359 -0.23671,0.0777 -0.0553,0.0418 -0.17937,0.0761 -0.2757,0.0761 -0.0963,0 -0.2101,0.035 -0.25285,0.0777 -0.0427,0.0427 -0.15931,0.0777 -0.25904,0.0777 -0.0998,0 -0.2163,0.035 -0.25905,0.0777 -0.0475,0.0476 -0.17445,0.0777 -0.32672,0.0777 -0.15812,0 -0.27253,0.0283 -0.31349,0.0777 -0.0405,0.0487 -0.15451,0.0777 -0.30567,0.0777 -0.13265,0 -0.28717,0.0315 -0.34337,0.07 -0.0562,0.0385 -0.27532,0.0857 -0.48692,0.1048 -0.21159,0.0191 -0.41083,0.0565 -0.44274,0.0829 -0.0319,0.0265 -0.31343,0.0717 -0.62558,0.10046 -0.31215,0.0288 -0.70743,0.0745 -0.8784,0.10171 -0.38223,0.0607 -3.49953,0.0591 -3.96343,-0.002 z m 3.79323,-3.22404 c 0.12211,-0.0397 0.42998,-0.0867 0.68417,-0.10457 0.25419,-0.0179 0.48733,-0.0531 0.5181,-0.0783 0.0307,-0.0251 0.21363,-0.0624 0.40637,-0.0829 0.19275,-0.0205 0.36214,-0.056 0.37644,-0.0792 0.0143,-0.0231 0.15717,-0.0585 0.31749,-0.0785 0.16032,-0.02 0.3523,-0.0681 0.42662,-0.10697 0.0743,-0.0387 0.20506,-0.0714 0.29055,-0.0725 0.0855,-0.001 0.20067,-0.0362 0.25599,-0.0781 0.0553,-0.0418 0.17486,-0.0761 0.26566,-0.0761 0.0907,0 0.1941,-0.035 0.22957,-0.0777 0.0354,-0.0427 0.12576,-0.0784 0.20063,-0.0793 0.0749,-8.1e-4 0.1814,-0.0359 0.23671,-0.0777 0.0553,-0.0418 0.1632,-0.0761 0.23975,-0.0761 0.0766,0 0.1682,-0.035 0.20368,-0.0777 0.0354,-0.0428 0.11707,-0.0777 0.18134,-0.0777 0.0642,0 0.14586,-0.035 0.18133,-0.0777 0.0354,-0.0427 0.12909,-0.0777 0.20804,-0.0777 0.0798,0 0.15679,-0.0345 0.17337,-0.0777 0.0163,-0.0427 0.0859,-0.0777 0.15463,-0.0777 0.0687,0 0.15383,-0.035 0.1893,-0.0777 0.0354,-0.0427 0.11743,-0.0777 0.18213,-0.0777 0.0647,0 0.13106,-0.035 0.14746,-0.0777 0.0163,-0.0427 0.0863,-0.0777 0.15543,-0.0777 0.0691,0 0.13903,-0.035 0.15543,-0.0777 0.0163,-0.0427 0.0676,-0.0777 0.11394,-0.0777 0.0463,0 0.1434,-0.0466 0.21585,-0.10366 0.0725,-0.057 0.16161,-0.10365 0.19814,-0.10365 0.0366,0 0.0742,-0.0175 0.0837,-0.0389 0.009,-0.0214 0.0872,-0.0754 0.1727,-0.1201 0.4644,-0.24275 0.6258,-0.33962 0.66315,-0.39799 0.0227,-0.0357 0.084,-0.0648 0.13613,-0.0648 0.0521,0 0.12373,-0.035 0.1592,-0.0777 0.0354,-0.0427 0.0966,-0.0777 0.13587,-0.0777 0.0393,0 0.0714,-0.0229 0.0714,-0.0509 0,-0.028 0.0574,-0.0653 0.12741,-0.0829 0.0701,-0.0176 0.1545,-0.0647 0.18766,-0.10457 0.0331,-0.04 0.1048,-0.0727 0.15919,-0.0727 0.0544,0 0.11234,-0.035 0.12872,-0.0777 0.0165,-0.0427 0.0726,-0.0777 0.12484,-0.0777 0.0522,0 0.11029,-0.0248 0.12901,-0.055 0.0187,-0.0303 0.0842,-0.0773 0.14554,-0.10435 0.0614,-0.0272 0.18147,-0.0953 0.26696,-0.15146 0.0855,-0.0561 0.21325,-0.1272 0.2839,-0.15791 0.0706,-0.0307 0.14067,-0.0719 0.15557,-0.0914 0.015,-0.0195 0.13196,-0.0913 0.26011,-0.1593 0.12816,-0.068 0.33325,-0.19043 0.45579,-0.272 0.12253,-0.0816 0.25658,-0.14831 0.2979,-0.14831 0.0414,0 0.0751,-0.021 0.0751,-0.0467 0,-0.0257 0.0641,-0.072 0.14248,-0.10286 0.15789,-0.0622 0.30859,-0.15346 0.41599,-0.25191 0.0389,-0.0356 0.11315,-0.0648 0.16503,-0.0648 0.0519,0 0.10777,-0.035 0.1242,-0.0777 0.0165,-0.0427 0.0779,-0.0777 0.13669,-0.0777 0.0587,0 0.12029,-0.035 0.1367,-0.0777 0.0163,-0.0427 0.0739,-0.0777 0.1279,-0.0777 0.0539,0 0.0981,-0.0229 0.0981,-0.0509 0,-0.028 0.0574,-0.0653 0.12741,-0.0829 0.0701,-0.0176 0.15453,-0.0647 0.18768,-0.10457 0.0331,-0.04 0.104,-0.0726 0.15754,-0.0726 0.0535,0 0.0973,-0.0213 0.0973,-0.0472 0,-0.0259 0.10571,-0.0984 0.23494,-0.16091 0.1292,-0.0625 0.26368,-0.1404 0.29882,-0.17301 0.0352,-0.0326 0.18005,-0.11757 0.32202,-0.1888 0.14198,-0.0712 0.27027,-0.14555 0.28508,-0.16514 0.0148,-0.0196 0.0848,-0.0604 0.15544,-0.0905 0.1512,-0.0647 0.30339,-0.15909 0.40197,-0.24945 0.0389,-0.0357 0.10115,-0.0648 0.13832,-0.0648 0.0373,0 0.0967,-0.035 0.13218,-0.0777 0.0354,-0.0428 0.10822,-0.0777 0.16177,-0.0777 0.0535,0 0.0973,-0.0213 0.0973,-0.0472 0,-0.0259 0.11075,-0.1 0.24611,-0.16468 0.13535,-0.0646 0.26474,-0.1483 0.28753,-0.18596 0.0227,-0.0376 0.0961,-0.0684 0.16283,-0.0684 0.0668,0 0.13483,-0.035 0.15123,-0.0777 0.0165,-0.0427 0.076,-0.0777 0.13249,-0.0777 0.0564,0 0.12132,-0.0309 0.14411,-0.0685 0.0227,-0.0376 0.15068,-0.12061 0.28421,-0.18435 0.13353,-0.0638 0.2501,-0.13202 0.25905,-0.15173 0.009,-0.0198 0.13231,-0.0942 0.27415,-0.16536 0.14183,-0.0712 0.34932,-0.19365 0.46111,-0.272 0.11177,-0.0784 0.23185,-0.14248 0.26682,-0.14248 0.035,0 0.0926,-0.035 0.12809,-0.0777 0.0354,-0.0428 0.10583,-0.0777 0.15624,-0.0777 0.0504,0 0.10514,-0.035 0.12154,-0.0777 0.0165,-0.0428 0.0747,-0.0777 0.12953,-0.0777 0.0549,0 0.11315,-0.035 0.12952,-0.0777 0.0163,-0.0427 0.0747,-0.0777 0.12954,-0.0777 0.0548,0 0.11314,-0.035 0.12952,-0.0777 0.0165,-0.0427 0.0779,-0.0777 0.13669,-0.0777 0.0588,0 0.12029,-0.035 0.1367,-0.0777 0.0163,-0.0427 0.0856,-0.0777 0.15379,-0.0777 0.0682,0 0.12399,-0.0246 0.12399,-0.0545 0,-0.0299 0.07,-0.0788 0.15543,-0.10868 0.0855,-0.0298 0.15543,-0.0752 0.15543,-0.10092 0,-0.0257 0.0441,-0.0467 0.0981,-0.0467 0.0539,0 0.11154,-0.035 0.12789,-0.0777 0.0165,-0.0428 0.0677,-0.0777 0.11395,-0.0777 0.0463,0 0.14339,-0.0466 0.21584,-0.10366 0.0725,-0.057 0.16356,-0.10365 0.20247,-0.10365 0.0388,0 0.0707,-0.0179 0.0707,-0.04 0,-0.0219 0.11028,-0.0977 0.24518,-0.16838 0.13484,-0.0706 0.2764,-0.15759 0.31456,-0.1932 0.0382,-0.0357 0.11434,-0.0648 0.1693,-0.0648 0.055,0 0.0999,-0.0239 0.0999,-0.0531 0,-0.0292 0.0525,-0.0768 0.11658,-0.10583 0.17606,-0.0797 0.35163,-0.18493 0.41625,-0.24955 0.0318,-0.0318 0.0973,-0.0578 0.14552,-0.0578 0.0482,0 0.10114,-0.035 0.11753,-0.0777 0.0165,-0.0427 0.0864,-0.0777 0.15543,-0.0777 0.0691,0 0.13903,-0.035 0.15544,-0.0777 0.0163,-0.0427 0.0626,-0.0777 0.10286,-0.0777 0.0401,0 0.10205,-0.035 0.13748,-0.0777 0.0354,-0.0427 0.10583,-0.0777 0.15623,-0.0777 0.0505,0 0.10514,-0.035 0.12155,-0.0777 0.0163,-0.0428 0.0779,-0.0777 0.1367,-0.0777 0.0587,0 0.12029,-0.035 0.1367,-0.0777 0.0165,-0.0428 0.0533,-0.0777 0.0818,-0.0777 0.0286,0 0.24501,-0.11657 0.48089,-0.25904 0.23588,-0.14248 0.45283,-0.25905 0.48211,-0.25905 0.0293,0 0.061,-0.0197 0.0705,-0.0438 0.0171,-0.0433 0.0569,-0.0667 0.54423,-0.31886 0.1376,-0.0712 0.26882,-0.15864 0.29161,-0.19429 0.0227,-0.0357 0.0985,-0.0648 0.16836,-0.0648 0.0698,0 0.12695,-0.0239 0.12695,-0.0532 0,-0.0292 0.0525,-0.0768 0.11657,-0.10583 0.17607,-0.0796 0.35164,-0.18493 0.41625,-0.24954 0.0318,-0.0318 0.10046,-0.0578 0.1527,-0.0578 0.0522,0 0.10834,-0.035 0.1247,-0.0777 0.0165,-0.0427 0.0728,-0.0777 0.12532,-0.0777 0.0526,0 0.11418,-0.0291 0.13694,-0.0648 0.0227,-0.0357 0.14634,-0.11899 0.27457,-0.18523 0.31807,-0.16426 0.53884,-0.28859 0.56991,-0.32093 0.0143,-0.0149 0.0842,-0.0559 0.15543,-0.0912 0.0712,-0.0353 0.19947,-0.11028 0.28496,-0.16656 0.0855,-0.0562 0.20562,-0.12452 0.26697,-0.15168 0.0614,-0.0272 0.12684,-0.0742 0.14553,-0.10434 0.0187,-0.0303 0.0767,-0.055 0.12901,-0.055 0.0522,0 0.10846,-0.035 0.12484,-0.0777 0.0165,-0.0428 0.0743,-0.0777 0.12872,-0.0777 0.0544,0 0.12794,-0.035 0.16341,-0.0777 0.0354,-0.0428 0.0937,-0.0777 0.12952,-0.0777 0.0358,0 0.0941,-0.035 0.12952,-0.0777 0.0354,-0.0427 0.10583,-0.0777 0.15624,-0.0777 0.0504,0 0.10514,-0.035 0.12154,-0.0777 0.0165,-0.0427 0.078,-0.0777 0.1367,-0.0777 0.0587,0 0.1203,-0.035 0.1367,-0.0777 0.0163,-0.0427 0.0692,-0.0777 0.11753,-0.0777 0.0482,0 0.11371,-0.0261 0.14553,-0.0578 0.0737,-0.0737 0.25974,-0.18162 0.44215,-0.2565 0.0784,-0.0321 0.14248,-0.0773 0.14248,-0.10012 0,-0.023 0.0641,-0.0673 0.14248,-0.0987 0.0784,-0.0314 0.21241,-0.10389 0.29788,-0.1611 0.0855,-0.0573 0.19623,-0.11817 0.24611,-0.13542 0.0498,-0.0172 0.0906,-0.0494 0.0906,-0.0715 0,-0.0221 0.0608,-0.0554 0.13504,-0.0741 0.1786,-0.0448 0.92612,-0.79592 0.9713,-0.97595 0.0195,-0.0777 0.0583,-0.14121 0.0863,-0.14121 0.028,0 0.0509,-0.0538 0.0509,-0.11962 0,-0.0658 0.0343,-0.16487 0.0761,-0.22019 0.057,-0.0754 0.0761,-0.25584 0.0761,-0.72228 0,-0.46646 -0.019,-0.64684 -0.0761,-0.72229 -0.0418,-0.0553 -0.0761,-0.1399 -0.0761,-0.18794 0,-0.048 -0.035,-0.1164 -0.0777,-0.15188 -0.0428,-0.0354 -0.0777,-0.10822 -0.0777,-0.16177 0,-0.0535 -0.024,-0.0973 -0.0535,-0.0973 -0.0294,0 -0.0686,-0.0408 -0.0872,-0.0906 -0.0472,-0.12697 -0.49333,-0.58109 -0.57181,-0.58206 -0.0357,-4.9e-4 -0.0648,-0.0358 -0.0648,-0.0785 0,-0.0427 -0.0438,-0.0777 -0.0973,-0.0777 -0.0535,0 -0.12629,-0.035 -0.16177,-0.0777 -0.0354,-0.0427 -0.11876,-0.0777 -0.18509,-0.0777 -0.0663,0 -0.14155,-0.0374 -0.16714,-0.0831 -0.0696,-0.12437 -1.41534,-0.12545 -1.53955,-0.001 -0.0464,0.0464 -0.13962,0.0844 -0.20714,0.0844 -0.0675,0 -0.13806,0.0248 -0.15676,0.055 -0.0187,0.0303 -0.0842,0.0773 -0.14553,0.10434 -0.0614,0.0272 -0.18148,0.0953 -0.26697,0.15146 -0.0855,0.0561 -0.21325,0.12719 -0.2839,0.1579 -0.0706,0.0307 -0.14063,0.0719 -0.15547,0.0914 -0.0149,0.0195 -0.0969,0.0722 -0.18239,0.11686 -0.40226,0.21032 -0.62369,0.33626 -0.64849,0.36884 -0.015,0.0196 -0.0849,0.0607 -0.15558,0.0914 -0.0706,0.0307 -0.19841,0.10172 -0.2839,0.1579 -0.0855,0.0561 -0.20562,0.12431 -0.26697,0.15147 -0.0614,0.0272 -0.12683,0.0742 -0.14553,0.10435 -0.0187,0.0303 -0.0768,0.055 -0.129,0.055 -0.0522,0 -0.10846,0.035 -0.12485,0.0777 -0.0163,0.0427 -0.0888,0.0777 -0.16097,0.0777 -0.0721,0 -0.13116,0.0239 -0.13116,0.0531 0,0.0293 -0.0525,0.0768 -0.11657,0.10583 -0.17605,0.0796 -0.35163,0.18493 -0.41625,0.24954 -0.0318,0.0318 -0.10046,0.0578 -0.15267,0.0578 -0.0522,0 -0.10835,0.035 -0.12471,0.0777 -0.0165,0.0428 -0.0533,0.0777 -0.0818,0.0777 -0.0286,0 -0.24502,0.11657 -0.48089,0.25904 -0.23588,0.14248 -0.45477,0.25905 -0.48644,0.25905 -0.0316,0 -0.0576,0.021 -0.0576,0.0467 0,0.0257 -0.0641,0.073 -0.14248,0.10526 -0.18241,0.0749 -0.36843,0.1828 -0.44214,0.25651 -0.0318,0.0318 -0.0973,0.0578 -0.14552,0.0578 -0.0482,0 -0.10115,0.035 -0.11755,0.0777 -0.0163,0.0427 -0.0779,0.0777 -0.13668,0.0777 -0.0587,0 -0.1203,0.035 -0.1367,0.0777 -0.0165,0.0427 -0.0711,0.0777 -0.12155,0.0777 -0.0505,0 -0.12076,0.035 -0.15623,0.0777 -0.0354,0.0428 -0.0937,0.0777 -0.12953,0.0777 -0.0358,0 -0.0941,0.035 -0.12952,0.0777 -0.0354,0.0427 -0.10823,0.0777 -0.16178,0.0777 -0.0535,0 -0.0972,0.023 -0.0972,0.0511 0,0.0281 -0.0758,0.0854 -0.16838,0.12716 -0.0926,0.0418 -0.28496,0.14674 -0.42743,0.23316 -0.14248,0.0864 -0.31734,0.1861 -0.38858,0.22152 -0.0712,0.0354 -0.14166,0.0809 -0.15648,0.10103 -0.0149,0.0202 -0.0848,0.0618 -0.15543,0.0925 -0.0706,0.0307 -0.19841,0.10183 -0.2839,0.15809 -0.0855,0.0562 -0.1904,0.11873 -0.23314,0.13881 -0.0427,0.0201 -0.10857,0.067 -0.14618,0.10423 -0.0376,0.0373 -0.11098,0.0677 -0.16284,0.0677 -0.0519,0 -0.10777,0.035 -0.12419,0.0777 -0.0163,0.0427 -0.0743,0.0777 -0.12873,0.0777 -0.0544,0 -0.12791,0.035 -0.16339,0.0777 -0.0354,0.0427 -0.0937,0.0777 -0.12952,0.0777 -0.0358,0 -0.094,0.035 -0.12953,0.0777 -0.0354,0.0427 -0.10583,0.0777 -0.15623,0.0777 -0.0505,0 -0.10514,0.035 -0.12155,0.0777 -0.0165,0.0427 -0.076,0.0777 -0.13249,0.0777 -0.0565,0 -0.12132,0.0291 -0.14411,0.0648 -0.0227,0.0357 -0.14634,0.11853 -0.27457,0.18416 -0.12824,0.0656 -0.30309,0.16446 -0.38858,0.21959 -0.0855,0.0551 -0.21371,0.12916 -0.28495,0.16451 -0.0712,0.0353 -0.14166,0.0808 -0.15649,0.10092 -0.0149,0.0202 -0.0848,0.0624 -0.15543,0.0939 -0.18426,0.0822 -0.36126,0.18719 -0.42814,0.25407 -0.0318,0.0318 -0.0973,0.0578 -0.14553,0.0578 -0.0482,0 -0.10114,0.035 -0.11753,0.0777 -0.0163,0.0427 -0.076,0.0777 -0.13249,0.0777 -0.0565,0 -0.12131,0.0291 -0.1441,0.0648 -0.0227,0.0357 -0.1056,0.0979 -0.18391,0.13828 -0.13022,0.0671 -0.14248,0.0989 -0.14248,0.36919 0,0.19969 -0.0253,0.31671 -0.0777,0.36026 -0.0438,0.0364 -0.0777,0.14932 -0.0777,0.25904 0,0.10972 -0.0339,0.22268 -0.0777,0.25905 -0.0427,0.0354 -0.0777,0.11827 -0.0777,0.18398 0,0.0657 -0.035,0.15446 -0.0777,0.1972 -0.0428,0.0427 -0.0788,0.10857 -0.08,0.14617 -10e-4,0.0377 -0.0593,0.16173 -0.1292,0.27571 -0.0698,0.11394 -0.15415,0.2597 -0.1874,0.32381 -0.0332,0.0641 -0.08,0.11657 -0.104,0.11657 -0.0239,0 -0.0434,0.0253 -0.0434,0.056 0,0.14348 -0.88283,1.08042 -1.14648,1.21676 -0.0818,0.0423 -0.14875,0.0997 -0.14875,0.12741 0,0.0278 -0.0321,0.0505 -0.0714,0.0505 -0.0393,0 -0.10034,0.035 -0.13586,0.0777 -0.0354,0.0428 -0.10583,0.0777 -0.15624,0.0777 -0.0504,0 -0.10514,0.035 -0.12154,0.0777 -0.0165,0.0428 -0.0672,0.0777 -0.11292,0.0777 -0.0457,0 -0.11802,0.035 -0.16076,0.0777 -0.0428,0.0427 -0.13506,0.0777 -0.20516,0.0777 -0.0701,0 -0.14087,0.035 -0.15728,0.0777 -0.0165,0.0427 -0.0864,0.0777 -0.15562,0.0777 -0.0691,0 -0.17744,0.0322 -0.24055,0.0716 -0.0631,0.0394 -0.21851,0.0871 -0.34533,0.10594 -0.12681,0.0189 -0.26444,0.0624 -0.30586,0.0968 -0.10686,0.0887 -21.95333,0.11894 -22.05983,0.0305 -0.0591,-0.049 -0.0695,-0.33549 -0.0583,-1.59408 l 0.0137,-1.53436 10.69869,-0.026 c 8.8832,-0.0215 10.72506,-0.0379 10.85411,-0.0966 0.51218,-0.23284 0.62858,-0.29248 0.69018,-0.3536 0.0376,-0.0374 0.0842,-0.068 0.10366,-0.068 0.0729,0 0.46389,-0.39624 0.57525,-0.58279 0.0638,-0.10685 0.1374,-0.19428 0.16357,-0.19428 0.0262,0 0.0476,-0.059 0.0476,-0.13116 0,-0.0721 0.035,-0.14456 0.0777,-0.16097 0.0462,-0.0177 0.0778,-0.096 0.0781,-0.19265 0,-0.0896 0.0352,-0.22962 0.0777,-0.31124 0.0853,-0.16354 0.10823,-0.81008 0.0288,-0.81008 -0.0267,0 -0.0651,-0.10995 -0.0852,-0.24442 -0.0201,-0.13443 -0.0682,-0.27597 -0.10675,-0.31454 -0.0385,-0.0386 -0.0702,-0.11511 -0.0702,-0.17006 0,-0.055 -0.0217,-0.0999 -0.0483,-0.0999 -0.0266,0 -0.0645,-0.0511 -0.0843,-0.11348 -0.0469,-0.14756 -0.63746,-0.74246 -0.7823,-0.78798 -0.0616,-0.0193 -0.14017,-0.0693 -0.17473,-0.11086 -0.0345,-0.0416 -0.10377,-0.0756 -0.15376,-0.0756 -0.0501,0 -0.11996,-0.035 -0.15543,-0.0777 -0.0385,-0.0464 -0.15181,-0.0777 -0.2814,-0.0777 -0.11929,0 -0.26216,-0.0343 -0.31747,-0.0761 -0.0874,-0.0662 -1.23424,-0.0762 -8.81119,-0.0777 -7.67823,-0.001 -8.71827,-0.0103 -8.77513,-0.0793 -0.0354,-0.0427 -0.14039,-0.0777 -0.23314,-0.0777 -0.0928,0 -0.19767,-0.035 -0.23315,-0.0777 -0.0354,-0.0428 -0.14157,-0.0777 -0.23578,-0.0777 -0.0942,0 -0.20626,-0.035 -0.24901,-0.0777 -0.0427,-0.0427 -0.14765,-0.0777 -0.23314,-0.0777 -0.0855,0 -0.1904,-0.035 -0.23314,-0.0777 -0.0427,-0.0427 -0.1332,-0.0777 -0.20103,-0.0777 -0.0678,0 -0.16858,-0.0343 -0.2239,-0.0761 -0.0553,-0.0418 -0.17467,-0.0768 -0.26524,-0.0777 -0.0906,-8.2e-4 -0.19966,-0.0366 -0.2424,-0.0793 -0.0427,-0.0427 -0.1332,-0.0777 -0.20103,-0.0777 -0.0678,0 -0.16859,-0.0343 -0.2239,-0.0761 -0.0553,-0.0418 -0.17115,-0.0768 -0.25742,-0.0777 -0.0863,-8.1e-4 -0.20284,-0.0337 -0.25905,-0.0729 -0.0562,-0.0392 -0.20128,-0.0879 -0.32239,-0.10822 -0.12111,-0.0203 -0.22019,-0.0561 -0.22019,-0.0797 0,-0.0235 -0.0991,-0.0593 -0.2202,-0.0797 -0.12109,-0.0203 -0.26617,-0.069 -0.32237,-0.10823 -0.0562,-0.0392 -0.16411,-0.0712 -0.23976,-0.0712 -0.0757,0 -0.16659,-0.035 -0.20205,-0.0777 -0.0355,-0.0427 -0.1404,-0.0777 -0.23315,-0.0777 -0.0928,0 -0.19767,-0.035 -0.23315,-0.0777 -0.0371,-0.0448 -0.1502,-0.0777 -0.26701,-0.0777 -0.13222,0 -0.21287,-0.027 -0.23235,-0.0777 -0.0207,-0.0541 -0.10502,-0.0777 -0.27698,-0.0777 -0.15649,0 -0.27082,-0.0285 -0.31166,-0.0777 -0.0424,-0.0511 -0.15795,-0.0777 -0.33676,-0.0777 -0.17881,0 -0.2944,-0.0266 -0.33676,-0.0777 -0.0446,-0.0537 -0.16313,-0.0777 -0.38338,-0.0777 -0.18566,0 -0.36159,-0.0296 -0.42108,-0.071 -0.0656,-0.0456 -0.3112,-0.0794 -0.6864,-0.0946 -0.34726,-0.0141 -0.60887,-0.0483 -0.64503,-0.0845 -0.0975,-0.0975 -3.88469,-0.0834 -4.15897,0.0154 -0.12202,0.044 -0.40584,0.0755 -0.69019,0.0769 -0.35784,0.001 -0.50306,0.0224 -0.56065,0.08 -0.0543,0.0543 -0.18708,0.0777 -0.44038,0.0777 -0.25329,0 -0.38611,0.0234 -0.44038,0.0777 -0.0476,0.0476 -0.17446,0.0777 -0.32672,0.0777 -0.15813,0 -0.27254,0.0283 -0.3135,0.0777 -0.0408,0.0493 -0.15517,0.0777 -0.31166,0.0777 -0.17191,0 -0.25625,0.0237 -0.27698,0.0777 -0.0194,0.0507 -0.10012,0.0777 -0.23236,0.0777 -0.11681,0 -0.2298,0.0329 -0.26701,0.0777 -0.0354,0.0427 -0.13805,0.0777 -0.22796,0.0777 -0.0899,0 -0.20945,0.032 -0.26566,0.0711 -0.0562,0.0391 -0.17796,0.0875 -0.27058,0.10777 -0.0926,0.0201 -0.16838,0.056 -0.16838,0.0798 0,0.0238 -0.0933,0.0589 -0.20722,0.0782 -0.11394,0.0193 -0.20724,0.0544 -0.20724,0.0782 0,0.0238 -0.0744,0.0595 -0.16544,0.0794 -0.091,0.02 -0.19758,0.0685 -0.23685,0.10778 -0.0393,0.0393 -0.11637,0.0714 -0.17131,0.0714 -0.055,0 -0.0999,0.0229 -0.0999,0.0509 0,0.028 -0.0641,0.0664 -0.14248,0.0855 -0.0784,0.0191 -0.18847,0.0662 -0.24467,0.10457 -0.0562,0.0385 -0.14364,0.0699 -0.19429,0.0699 -0.0506,0 -0.0921,0.0229 -0.0921,0.0509 0,0.028 -0.0574,0.0653 -0.1274,0.0829 -0.0701,0.0176 -0.15452,0.0647 -0.18768,0.10457 -0.0331,0.04 -0.1048,0.0726 -0.15918,0.0726 -0.0544,0 -0.11234,0.035 -0.12873,0.0777 -0.0164,0.0428 -0.0831,0.0777 -0.14825,0.0777 -0.0651,0 -0.13186,0.035 -0.14826,0.0777 -0.0165,0.0427 -0.0771,0.0777 -0.13508,0.0777 -0.0578,0 -0.10525,0.0229 -0.10525,0.0508 0,0.028 -0.0583,0.0655 -0.12952,0.0833 -0.0712,0.0179 -0.12952,0.0545 -0.12952,0.0814 0,0.0269 -0.07,0.0733 -0.15543,0.10308 -0.0855,0.0298 -0.15543,0.0752 -0.15543,0.10092 0,0.0257 -0.0314,0.0467 -0.0699,0.0467 -0.0385,0 -0.16248,0.0671 -0.27558,0.14896 -0.11314,0.0819 -0.25649,0.1651 -0.31864,0.18482 -0.0622,0.0198 -0.11303,0.0553 -0.11303,0.0791 0,0.0238 -0.0641,0.0685 -0.14248,0.0994 -0.15788,0.0622 -0.30858,0.15346 -0.41599,0.25192 -0.0388,0.0357 -0.11314,0.0648 -0.16503,0.0648 -0.0519,0 -0.10777,0.035 -0.12419,0.0777 -0.0165,0.0428 -0.0859,0.0777 -0.15463,0.0777 -0.0687,0 -0.15383,0.035 -0.1893,0.0777 -0.0523,0.0631 -0.21909,0.0777 -0.8871,0.0777 h -0.82262 v 6.68344 6.68343 l 5.16802,0.002 c 5.80495,0.003 6.58106,0.0177 6.86583,0.12845 0.12626,0.0491 0.38325,0.076 0.72675,0.076 0.37322,0 0.56245,0.0217 0.63562,0.073 0.0712,0.0499 0.29893,0.0786 0.71967,0.0906 0.43322,0.0125 0.62183,0.0368 0.63698,0.0824 0.0156,0.0469 0.18903,0.0648 0.62901,0.0648 0.45394,0 0.63293,0.0192 0.70807,0.0761 0.0731,0.0553 0.24892,0.0766 0.64457,0.0781 0.37851,0.001 0.58915,0.0255 0.6924,0.0793 0.10457,0.0545 0.31157,0.0774 0.70086,0.0774 0.38668,0 0.58316,0.0215 0.65483,0.0717 0.0682,0.0478 0.30266,0.0781 0.70314,0.0907 0.34022,0.0103 0.63223,0.0445 0.67334,0.0777 0.0407,0.0328 0.3406,0.0684 0.68212,0.0809 0.372,0.0136 0.63346,0.0463 0.67093,0.0838 0.0389,0.0389 0.2527,0.0623 0.58208,0.0637 0.31734,0.001 0.60164,0.0314 0.72793,0.0769 0.11395,0.041 0.37045,0.0765 0.56991,0.0785 0.19947,0.002 0.47923,0.0273 0.62171,0.0559 0.14248,0.0287 0.52716,0.0742 0.85485,0.10103 0.32771,0.027 0.65411,0.0703 0.72534,0.0965 0.0712,0.0261 0.38594,0.0627 0.69934,0.0815 0.31339,0.0188 0.59406,0.0542 0.62369,0.0788 0.0296,0.0246 0.33102,0.0612 0.66975,0.0815 0.33872,0.0202 0.71087,0.0665 0.82698,0.10297 0.31493,0.0986 3.26071,0.0994 3.56397,9.8e-4 z m -35.18987,-8.78771 v -8.08263 l -3.89867,0.0133 -3.89867,0.0133 -0.0133,8.00458 c -0.007,4.40252 -0.002,8.03373 0.0114,8.06934 0.0194,0.051 0.84978,0.0648 3.91199,0.0648 h 3.88732 z m 20.8102,-16.40605 c -0.019,-0.019 -0.0345,-0.71377 -0.0345,-1.54393 0,-1.10489 0.0167,-1.52604 0.0622,-1.57156 0.0473,-0.0473 1.03848,-0.0622 4.14477,-0.0622 h 4.08259 V 227.2821 c 0,-17.45123 -0.002,-17.87433 -0.0973,-17.87433 -0.0535,0 -0.12629,-0.035 -0.16177,-0.0777 -0.0354,-0.0427 -0.11876,-0.0777 -0.18509,-0.0777 -0.0663,0 -0.13926,-0.0298 -0.16204,-0.0663 -0.0227,-0.0365 -0.0917,-0.0889 -0.15298,-0.11657 -0.22628,-0.10206 -0.85361,-0.66126 -1.13189,-1.0089 -0.23534,-0.29402 -0.49218,-0.73578 -0.49218,-0.84653 0,-0.0384 -0.0426,-0.10846 -0.0947,-0.15561 -0.087,-0.0786 -0.53846,-0.0855 -5.47887,-0.0821 -2.96128,0.002 -5.42921,0.0213 -5.48431,0.0429 -0.0648,0.0254 -0.0795,0.052 -0.0419,0.0752 0.0321,0.0198 0.11211,0.14623 0.17789,0.28094 0.0658,0.1347 0.14876,0.27573 0.18438,0.31339 0.0357,0.0376 0.0648,0.11337 0.0648,0.16838 0,0.055 0.0239,0.0999 0.0531,0.0999 0.0293,0 0.0768,0.0525 0.10583,0.11657 0.0797,0.17606 0.18494,0.35163 0.24954,0.41624 0.0318,0.0318 0.0578,0.10046 0.0578,0.15269 0,0.0522 0.035,0.10834 0.0777,0.12471 0.0427,0.0165 0.0777,0.0594 0.0777,0.0957 0,0.0362 0.035,0.0948 0.0777,0.13032 0.0427,0.0354 0.0777,0.10571 0.0777,0.15622 0,0.0505 0.035,0.10515 0.0777,0.12156 0.0428,0.0165 0.0777,0.0779 0.0777,0.1367 0,0.0587 0.0335,0.11973 0.0745,0.13547 0.041,0.0158 0.0895,0.0966 0.10777,0.1797 0.0183,0.0831 0.0493,0.15111 0.069,0.15111 0.0197,0 0.0936,0.11074 0.16427,0.24609 0.0706,0.13536 0.14446,0.25823 0.16405,0.27307 0.0196,0.0148 0.0607,0.0848 0.0914,0.15542 0.0307,0.0706 0.10183,0.19842 0.1581,0.2839 0.0562,0.0855 0.11872,0.1904 0.13882,0.23314 0.0201,0.0428 0.067,0.10858 0.10422,0.14618 0.0373,0.0376 0.0677,0.11097 0.0677,0.16284 0,0.0519 0.035,0.10777 0.0777,0.1242 0.0427,0.0164 0.0777,0.0779 0.0777,0.13669 0,0.0588 0.035,0.12029 0.0777,0.13669 0.0427,0.0165 0.0777,0.0739 0.0777,0.12791 0,0.0539 0.021,0.0981 0.0467,0.0981 0.0257,0 0.0711,0.07 0.10092,0.15543 0.0298,0.0855 0.0787,0.15543 0.10868,0.15543 0.0299,0 0.0545,0.0453 0.0545,0.10057 0,0.0553 0.0248,0.11585 0.055,0.13455 0.0303,0.0187 0.0772,0.0842 0.10434,0.14554 0.0272,0.0614 0.0961,0.18148 0.15317,0.26696 0.057,0.0855 0.13179,0.21955 0.16602,0.29791 0.0343,0.0784 0.0786,0.14248 0.0985,0.14248 0.02,0 0.0513,0.068 0.0695,0.1511 0.0183,0.0831 0.0667,0.16398 0.10777,0.17971 0.041,0.0158 0.0745,0.0615 0.0745,0.1016 0,0.0401 0.035,0.10206 0.0777,0.1375 0.0427,0.0354 0.0777,0.10823 0.0777,0.16177 0,0.0535 0.021,0.0973 0.0468,0.0973 0.0257,0 0.072,0.0641 0.10285,0.14248 0.0622,0.15789 0.15347,0.30858 0.25192,0.41599 0.0357,0.0389 0.0648,0.10114 0.0648,0.13832 0,0.0373 0.035,0.0967 0.0777,0.13217 0.0427,0.0354 0.0777,0.10571 0.0777,0.15623 0,0.0505 0.035,0.10514 0.0777,0.12155 0.0427,0.0165 0.0777,0.0779 0.0777,0.1367 0,0.0587 0.035,0.12029 0.0777,0.13669 0.0427,0.0164 0.0777,0.0594 0.0777,0.0956 0,0.0362 0.035,0.0949 0.0777,0.13032 0.0428,0.0354 0.0777,0.10903 0.0777,0.16341 0,0.0544 0.035,0.11234 0.0777,0.12872 0.0427,0.0163 0.0777,0.0533 0.0777,0.0818 0,0.0286 0.11657,0.245 0.25905,0.48089 0.14247,0.23587 0.25904,0.45476 0.25904,0.48643 0,0.0317 0.021,0.0576 0.0467,0.0576 0.0257,0 0.072,0.0641 0.10286,0.14248 0.0622,0.15789 0.15346,0.30859 0.25192,0.41599 0.0357,0.0389 0.0648,0.10114 0.0648,0.13832 0,0.0373 0.035,0.0967 0.0777,0.13216 0.0427,0.0354 0.0777,0.10583 0.0777,0.15624 0,0.0504 0.035,0.10515 0.0777,0.12156 0.0427,0.0163 0.0777,0.0771 0.0777,0.13506 0,0.0578 0.0229,0.10526 0.0509,0.10526 0.028,0 0.065,0.0566 0.0824,0.12577 0.0174,0.0691 0.0645,0.13839 0.10457,0.1538 0.0401,0.0154 0.073,0.0846 0.073,0.15364 0,0.0691 0.035,0.13903 0.0777,0.15543 0.0427,0.0165 0.0777,0.0639 0.0777,0.10548 0,0.0416 0.0291,0.10743 0.0648,0.14629 0.0885,0.0966 0.18425,0.24966 0.24641,0.39399 0.0286,0.0663 0.0867,0.15535 0.12941,0.19797 0.0426,0.0426 0.0775,0.11086 0.0775,0.15154 0,0.0407 0.021,0.074 0.0468,0.074 0.0257,0 0.073,0.0641 0.10525,0.14248 0.0749,0.18243 0.1828,0.36845 0.25651,0.44215 0.0318,0.0318 0.0578,0.0898 0.0578,0.12887 0,0.0391 0.035,0.10606 0.0777,0.14877 0.0427,0.0427 0.0784,0.1285 0.0793,0.19058 9.7e-4,0.0621 0.0359,0.15814 0.0777,0.21345 0.11525,0.15239 0.11371,6.36655 -10e-4,6.64267 -0.0427,0.10229 -0.0777,0.29687 -0.0777,0.43237 0,0.15581 -0.0286,0.27009 -0.0777,0.31088 -0.0428,0.0354 -0.0777,0.12992 -0.0777,0.20989 0,0.08 -0.035,0.18035 -0.0777,0.22309 -0.0428,0.0427 -0.0777,0.12463 -0.0777,0.18198 0,0.0574 -0.0203,0.1168 -0.045,0.13211 -0.0248,0.0153 -0.11211,0.16242 -0.19416,0.32687 -0.0819,0.16446 -0.17468,0.32233 -0.20595,0.35083 -0.0313,0.0285 -0.17011,0.20334 -0.30851,0.38856 -0.35167,0.47062 -0.74101,0.84987 -1.34405,1.30921 -0.0288,0.0219 -0.12229,0.0981 -0.20777,0.16914 -0.0855,0.0711 -0.21954,0.15792 -0.29791,0.19296 -0.0784,0.0351 -0.14248,0.0819 -0.14248,0.10411 0,0.0223 -0.0525,0.0642 -0.11657,0.0932 -0.17607,0.0796 -0.35164,0.18492 -0.41624,0.24954 -0.0318,0.0318 -0.10046,0.0578 -0.1527,0.0578 -0.0522,0 -0.10834,0.035 -0.12471,0.0777 -0.0163,0.0428 -0.0863,0.0777 -0.15543,0.0777 -0.0691,0 -0.13902,0.035 -0.15542,0.0777 -0.0167,0.0433 -0.0937,0.0777 -0.17416,0.0777 -0.0805,0 -0.15754,0.0344 -0.17418,0.0777 -0.0164,0.0427 -0.0859,0.0777 -0.15462,0.0777 -0.0687,0 -0.15383,0.035 -0.18931,0.0777 -0.0354,0.0427 -0.12873,0.0777 -0.20723,0.0777 -0.0785,0 -0.17177,0.035 -0.20725,0.0777 -0.0354,0.0427 -0.1024,0.0778 -0.14881,0.0781 -0.0464,1.6e-4 -0.14479,0.0319 -0.21867,0.0704 -0.0739,0.0385 -0.21862,0.0859 -0.32163,0.10525 -0.10297,0.0193 -0.25237,0.0692 -0.33194,0.11063 -0.0795,0.0415 -0.20611,0.0757 -0.28122,0.0758 -0.0751,1.5e-4 -0.20333,0.0351 -0.28495,0.0777 -0.0816,0.0426 -0.23317,0.0775 -0.33677,0.0777 -0.10354,1.6e-4 -0.25514,0.0351 -0.33676,0.0777 -0.0837,0.0436 -0.28518,0.0775 -0.46183,0.0777 -0.1805,1.6e-4 -0.3408,0.0277 -0.37792,0.0648 -0.0416,0.0416 -0.27914,0.0711 -0.67094,0.0831 -0.35083,0.0103 -0.63707,0.0437 -0.67906,0.0781 -0.10571,0.0864 -2.31737,0.112 -2.63732,0.0305 -0.13378,-0.0341 -0.52771,-0.0765 -0.87539,-0.0943 -0.39663,-0.0202 -0.65623,-0.0565 -0.69682,-0.097 -0.0374,-0.0375 -0.19685,-0.0649 -0.37815,-0.0651 -0.17666,-1.6e-4 -0.37821,-0.0341 -0.46185,-0.0777 -0.0816,-0.0426 -0.22964,-0.0774 -0.32893,-0.0774 -0.0993,0 -0.254,-0.0315 -0.34379,-0.0701 -0.15521,-0.0666 -0.37325,-0.13044 -0.83679,-0.24503 -0.11394,-0.0282 -0.28071,-0.0854 -0.3705,-0.12713 -0.0898,-0.0417 -0.19768,-0.0759 -0.23975,-0.0759 -0.0421,0 -0.10549,-0.035 -0.141,-0.0777 -0.0354,-0.0428 -0.12873,-0.0777 -0.20723,-0.0777 -0.0785,0 -0.17177,-0.035 -0.20724,-0.0777 -0.0354,-0.0427 -0.11993,-0.0777 -0.18768,-0.0777 -0.0678,0 -0.12318,-0.0229 -0.12318,-0.0508 0,-0.028 -0.0641,-0.0661 -0.14247,-0.0847 -0.0784,-0.0186 -0.17745,-0.0625 -0.2202,-0.0976 -0.0427,-0.0351 -0.14183,-0.079 -0.22019,-0.0976 -0.0784,-0.0186 -0.14248,-0.0567 -0.14248,-0.0847 0,-0.028 -0.0321,-0.0508 -0.0714,-0.0508 -0.0392,0 -0.10034,-0.035 -0.13586,-0.0777 -0.0354,-0.0427 -0.10903,-0.0777 -0.1634,-0.0777 -0.0544,0 -0.11234,-0.035 -0.12873,-0.0777 -0.0163,-0.0427 -0.0573,-0.0777 -0.0909,-0.0777 -0.0679,0 -0.75683,-0.46531 -0.93067,-0.62854 -0.0611,-0.0574 -0.17776,-0.15511 -0.2592,-0.21714 -0.2889,-0.2201 -0.96584,-0.93632 -0.96584,-1.0219 0,-0.0272 -0.0201,-0.0494 -0.0448,-0.0494 -0.0246,0 -0.112,-0.0991 -0.19429,-0.22018 -0.0823,-0.1211 -0.167,-0.22796 -0.18837,-0.23746 -0.0214,-0.009 -0.0389,-0.0487 -0.0389,-0.087 0,-0.0383 -0.0291,-0.10045 -0.0648,-0.13816 -0.091,-0.0961 -0.29791,-0.53018 -0.29791,-0.62475 0,-0.0432 -0.035,-0.10766 -0.0777,-0.14314 -0.0427,-0.0354 -0.0777,-0.1324 -0.0777,-0.21541 0,-0.083 -0.0322,-0.20255 -0.0718,-0.26566 -0.10354,-0.16563 -0.1348,-1.14467 -0.13335,-4.1818 0.001,-2.77649 0.0194,-3.22621 0.13353,-3.32092 0.0393,-0.0327 0.0716,-0.10034 0.0716,-0.15033 0,-0.05 0.035,-0.11995 0.0777,-0.15543 0.0427,-0.0354 0.0777,-0.093 0.0777,-0.12794 0,-0.0349 0.0466,-0.11721 0.10365,-0.18291 0.057,-0.0657 0.10366,-0.15088 0.10366,-0.18927 0,-0.0384 0.0229,-0.0698 0.0509,-0.0698 0.028,0 0.0655,-0.0583 0.0833,-0.12952 0.0178,-0.0712 0.051,-0.12953 0.0736,-0.12953 0.0226,0 0.0655,-0.0699 0.0953,-0.15543 0.0298,-0.0855 0.0787,-0.15543 0.10868,-0.15543 0.0299,0 0.0545,-0.0558 0.0545,-0.12398 0,-0.0682 0.035,-0.1374 0.0777,-0.1538 0.0427,-0.0165 0.0777,-0.0626 0.0777,-0.10286 0,-0.0401 0.035,-0.10206 0.0777,-0.13747 0.0427,-0.0354 0.0777,-0.10583 0.0777,-0.15624 0,-0.0504 0.035,-0.10515 0.0777,-0.12156 0.0427,-0.0164 0.0777,-0.0779 0.0777,-0.13668 0,-0.0588 0.035,-0.1203 0.0777,-0.1367 0.0427,-0.0165 0.0777,-0.0693 0.0777,-0.11753 0,-0.0482 0.0261,-0.11372 0.0578,-0.14553 0.0737,-0.0737 0.18163,-0.25974 0.25651,-0.44215 0.0321,-0.0784 0.0796,-0.14248 0.10526,-0.14248 0.0257,0 0.0467,-0.0261 0.0467,-0.058 0,-0.063 0.35821,-0.6765 0.42016,-0.71968 0.0208,-0.0145 0.0535,-0.0886 0.0726,-0.16462 0.0191,-0.076 0.0675,-0.15083 0.10778,-0.16624 0.0401,-0.0154 0.073,-0.0726 0.073,-0.12693 0,-0.0544 0.035,-0.12792 0.0777,-0.16341 0.0427,-0.0354 0.0777,-0.0941 0.0777,-0.13032 0,-0.0362 0.035,-0.0792 0.0777,-0.0956 0.0427,-0.0165 0.0777,-0.078 0.0777,-0.1367 0,-0.0587 0.035,-0.12029 0.0777,-0.1367 0.0427,-0.0164 0.0777,-0.0693 0.0777,-0.11753 0,-0.0482 0.0261,-0.11371 0.0578,-0.14552 0.0646,-0.0646 0.16986,-0.24018 0.24953,-0.41625 0.029,-0.0641 0.0767,-0.11657 0.10583,-0.11657 0.0291,0 0.053,-0.0571 0.053,-0.12695 0,-0.0698 0.0291,-0.1456 0.0648,-0.16839 0.0357,-0.0227 0.11888,-0.15217 0.18497,-0.28752 0.0661,-0.13536 0.14184,-0.2461 0.16833,-0.2461 0.0265,0 0.0481,-0.0438 0.0481,-0.0973 0,-0.0535 0.035,-0.1263 0.0777,-0.16177 0.0427,-0.0354 0.0777,-0.0913 0.0777,-0.12409 0,-0.0328 0.0816,-0.1835 0.18134,-0.33494 0.0998,-0.15143 0.18134,-0.29467 0.18134,-0.31831 0,-0.0237 0.0197,-0.0507 0.0438,-0.0602 0.0473,-0.0186 0.17552,-0.24205 0.27009,-0.4706 0.0325,-0.0784 0.08,-0.14248 0.10571,-0.14248 0.0257,0 0.0468,-0.0357 0.0468,-0.0793 0,-0.0437 0.035,-0.0928 0.0777,-0.10914 0.0427,-0.0165 0.0777,-0.0863 0.0777,-0.15543 0,-0.069 0.035,-0.13901 0.0777,-0.15543 0.0427,-0.0164 0.0777,-0.0726 0.0777,-0.12483 0,-0.0522 0.0248,-0.11029 0.055,-0.12902 0.0303,-0.0187 0.0772,-0.0842 0.10434,-0.14553 0.0272,-0.0614 0.0953,-0.18148 0.15146,-0.26697 0.0561,-0.0855 0.1272,-0.21323 0.15791,-0.2839 0.0307,-0.0706 0.0719,-0.1406 0.0914,-0.15543 0.0195,-0.0148 0.0934,-0.1377 0.16406,-0.27306 0.0706,-0.13535 0.14642,-0.24609 0.16838,-0.24609 0.022,0 0.0399,-0.0297 0.0399,-0.0659 0,-0.0362 0.0798,-0.18713 0.17737,-0.33526 0.0976,-0.14813 0.19238,-0.31663 0.21073,-0.37445 0.0184,-0.0578 0.0551,-0.10514 0.0817,-0.10514 0.0266,0 0.0483,-0.0441 0.0483,-0.0981 0,-0.0539 0.035,-0.11154 0.0777,-0.12789 0.0427,-0.0165 0.0777,-0.0779 0.0777,-0.13669 0,-0.0587 0.035,-0.1203 0.0777,-0.1367 0.0427,-0.0163 0.0777,-0.0726 0.0777,-0.12484 0,-0.0522 0.0248,-0.11029 0.055,-0.129 0.0303,-0.0187 0.0773,-0.0842 0.10434,-0.14554 0.0272,-0.0614 0.0939,-0.18147 0.14848,-0.26696 0.0943,-0.14792 0.13777,-0.22556 0.41325,-0.73828 0.065,-0.1211 0.13925,-0.22019 0.16488,-0.22019 0.0256,0 0.0466,-0.0431 0.0466,-0.0957 0,-0.0527 0.0466,-0.14947 0.10365,-0.21517 0.057,-0.0657 0.10366,-0.13922 0.10366,-0.16336 0,-0.0241 -0.93198,-0.0439 -2.07106,-0.0439 h -2.07105 l -0.0791,-0.15285 c -0.065,-0.12567 -0.0791,-0.39566 -0.0791,-1.51803 0,-0.99272 0.0169,-1.38212 0.0622,-1.42733 0.048,-0.048 2.45201,-0.0622 10.50557,-0.0622 h 10.44341 l 0.0859,-0.16839 c 0.0472,-0.0926 0.1008,-0.22084 0.11889,-0.28495 0.0182,-0.0641 0.0548,-0.11657 0.0813,-0.11657 0.0265,0 0.0483,-0.0473 0.0483,-0.10526 0,-0.0578 0.035,-0.11866 0.0777,-0.13508 0.0427,-0.0164 0.0777,-0.0576 0.0777,-0.0914 0,-0.034 0.0408,-0.11498 0.0906,-0.18018 0.16465,-0.21524 0.78981,-0.83509 0.84227,-0.83509 0.0283,0 0.0514,-0.0221 0.0514,-0.049 0,-0.0467 0.14973,-0.14295 0.40152,-0.25791 0.0641,-0.0293 0.11658,-0.0771 0.11658,-0.10629 0,-0.0293 0.0554,-0.0531 0.12317,-0.0531 0.0678,0 0.15019,-0.0326 0.18319,-0.0723 0.033,-0.0398 0.14654,-0.0886 0.25232,-0.10834 0.10572,-0.0199 0.20622,-0.0585 0.2232,-0.0861 0.017,-0.0274 0.16858,-0.0621 0.33688,-0.0769 0.16831,-0.0148 0.35407,-0.05 0.41281,-0.0783 0.20044,-0.0963 1.80358,0.0311 1.95875,0.1557 0.0322,0.0259 0.13892,0.0643 0.23705,0.0853 0.0982,0.021 0.21052,0.0703 0.24979,0.1096 0.0393,0.0393 0.11637,0.0714 0.1713,0.0714 0.055,0 0.0999,0.021 0.0999,0.0467 0,0.0257 0.0641,0.0695 0.14248,0.0973 0.0784,0.0278 0.20779,0.11165 0.28762,0.1864 0.0799,0.0747 0.16451,0.13591 0.18817,0.13591 0.0685,0 0.78122,0.74192 0.84988,0.8847 0.0195,0.0406 0.0803,0.14371 0.13513,0.22919 0.12832,0.20014 0.29461,0.53756 0.33824,0.68636 l 0.0342,0.11644 10.50096,0.013 10.50095,0.013 0.0145,1.45068 c 0.008,0.79787 0.002,1.50313 -0.0139,1.56724 l -0.0285,0.11657 h -2.13124 c -2.06143,0 -2.12843,0.003 -2.0455,0.0948 0.0472,0.0521 0.0857,0.13122 0.0857,0.17579 0,0.0446 0.035,0.0945 0.0777,0.11086 0.0428,0.0164 0.0777,0.0779 0.0777,0.13669 0,0.0588 0.035,0.12029 0.0777,0.13669 0.0427,0.0165 0.0777,0.0693 0.0777,0.11754 0,0.0482 0.0261,0.11372 0.0578,0.14552 0.0597,0.0597 0.14823,0.204 0.26334,0.42919 0.0365,0.0712 0.0957,0.16033 0.13158,0.19799 0.036,0.0376 0.0654,0.0903 0.0654,0.11702 0,0.0267 0.0699,0.14512 0.15543,0.26312 0.0855,0.118 0.15543,0.24317 0.15543,0.27816 0,0.035 0.035,0.0926 0.0777,0.12809 0.0427,0.0354 0.0777,0.10583 0.0777,0.15623 0,0.0504 0.035,0.10514 0.0777,0.12155 0.0427,0.0163 0.0777,0.0779 0.0777,0.1367 0,0.0587 0.035,0.12028 0.0777,0.13668 0.0427,0.0165 0.0777,0.0714 0.0777,0.12236 0,0.0509 0.035,0.10594 0.0777,0.12236 0.0427,0.0165 0.0777,0.0779 0.0777,0.13669 0,0.0587 0.035,0.1203 0.0777,0.1367 0.0427,0.0164 0.0777,0.0726 0.0777,0.12483 0,0.0522 0.0248,0.11029 0.055,0.12902 0.0303,0.0187 0.0773,0.0842 0.10434,0.14553 0.0272,0.0614 0.0956,0.18149 0.1521,0.26697 0.0564,0.0855 0.12835,0.21954 0.15972,0.29791 0.0313,0.0784 0.0781,0.14248 0.10377,0.14248 0.0257,0 0.0468,0.0297 0.0468,0.0659 0,0.0362 0.0816,0.18984 0.18132,0.34128 0.0998,0.15144 0.18134,0.29377 0.18134,0.31629 0,0.0225 0.035,0.0699 0.0777,0.10548 0.0428,0.0354 0.0777,0.10583 0.0777,0.15623 0,0.0505 0.035,0.10515 0.0777,0.12156 0.0427,0.0164 0.0777,0.0771 0.0777,0.13507 0,0.0579 0.0217,0.10526 0.0483,0.10526 0.0266,0 0.0646,0.0514 0.0846,0.11417 0.0199,0.0627 0.0681,0.14606 0.10709,0.18504 0.039,0.039 0.0708,0.11584 0.0708,0.1708 0,0.055 0.0246,0.0999 0.0545,0.0999 0.0299,0 0.0788,0.0699 0.10868,0.15542 0.0298,0.0855 0.0752,0.15543 0.10092,0.15543 0.0257,0 0.0467,0.0321 0.0467,0.0714 0,0.0392 0.035,0.10034 0.0777,0.13586 0.0428,0.0354 0.0777,0.10583 0.0777,0.15623 0,0.0505 0.035,0.10515 0.0777,0.12156 0.0428,0.0165 0.0777,0.0565 0.0777,0.089 0,0.0326 0.11657,0.25218 0.25904,0.48805 0.14248,0.23589 0.25905,0.45478 0.25905,0.48645 0,0.0317 0.021,0.0576 0.0467,0.0576 0.0257,0 0.072,0.0641 0.10286,0.14247 0.0622,0.15788 0.15346,0.30859 0.25192,0.416 0.0357,0.0388 0.0648,0.10114 0.0648,0.13832 0,0.0373 0.035,0.0967 0.0777,0.13216 0.0428,0.0354 0.0777,0.10583 0.0777,0.15623 0,0.0505 0.035,0.10514 0.0777,0.12155 0.0427,0.0165 0.0777,0.0626 0.0777,0.10286 0,0.0401 0.035,0.10205 0.0777,0.13749 0.0427,0.0354 0.0777,0.10572 0.0777,0.15623 0,0.0505 0.035,0.10515 0.0777,0.12156 0.0427,0.0164 0.0777,0.0888 0.0777,0.16097 0,0.0821 0.0292,0.13115 0.0777,0.13115 0.0427,0 0.0777,0.0419 0.0777,0.0933 0,0.0513 0.0261,0.11927 0.0578,0.15106 0.0654,0.0654 0.17058,0.24148 0.25102,0.42015 0.0298,0.0663 0.0891,0.15536 0.13176,0.19799 0.0426,0.0426 0.0775,0.11086 0.0775,0.15153 0,0.0407 0.0233,0.0741 0.0518,0.0741 0.0285,0 0.0518,0.0314 0.0518,0.0698 0,0.0384 0.0466,0.12355 0.10365,0.18927 0.057,0.0657 0.10366,0.15088 0.10366,0.18925 0,0.0384 0.0215,0.0698 0.0477,0.0698 0.0262,0 0.0626,0.068 0.0809,0.1511 0.0183,0.0831 0.0668,0.16398 0.10777,0.1797 0.041,0.0158 0.0745,0.0646 0.0745,0.10846 0,0.0439 0.0699,0.17633 0.15543,0.29434 0.0855,0.11801 0.15543,0.24318 0.15543,0.27816 0,0.035 0.035,0.0926 0.0777,0.12809 0.0427,0.0354 0.0777,0.10583 0.0777,0.15623 0,0.0505 0.035,0.10515 0.0777,0.12157 0.0427,0.0165 0.0777,0.0626 0.0777,0.10286 0,0.0401 0.035,0.10205 0.0777,0.13749 0.0427,0.0354 0.0777,0.10572 0.0777,0.15623 0,0.0505 0.035,0.10514 0.0777,0.12156 0.0427,0.0165 0.0777,0.0743 0.0777,0.12872 0,0.0544 0.035,0.12793 0.0777,0.1634 0.0428,0.0354 0.0777,0.10377 0.0777,0.15186 0,0.048 0.0343,0.13264 0.0761,0.18795 0.065,0.0859 0.0763,0.58635 0.0777,3.44489 10e-4,2.22034 -0.0162,3.36218 -0.0516,3.3975 -0.0292,0.0292 -0.067,0.17962 -0.0839,0.33417 -0.0169,0.15453 -0.0629,0.33261 -0.10229,0.39573 -0.0393,0.0631 -0.0715,0.17136 -0.0715,0.24055 0,0.0692 -0.035,0.13923 -0.0777,0.15563 -0.0428,0.0164 -0.0777,0.0859 -0.0777,0.15462 0,0.0687 -0.035,0.15384 -0.0777,0.18932 -0.0427,0.0354 -0.0777,0.10903 -0.0777,0.16339 0,0.0544 -0.035,0.11235 -0.0777,0.12872 -0.0427,0.0165 -0.0777,0.0747 -0.0777,0.12953 0,0.0549 -0.035,0.11315 -0.0777,0.12952 -0.0427,0.0165 -0.0777,0.063 -0.0777,0.10366 0,0.0406 -0.035,0.0872 -0.0777,0.10366 -0.0427,0.0165 -0.0777,0.0631 -0.0777,0.10366 0,0.0406 -0.035,0.0872 -0.0777,0.10365 -0.0427,0.0163 -0.0777,0.0573 -0.0777,0.0908 0,0.0564 -0.69577,0.8088 -0.74797,0.8088 -0.0129,0 -0.11211,0.0815 -0.22057,0.18108 -0.10846,0.0997 -0.21578,0.1812 -0.2385,0.18134 -0.0227,1.6e-4 -0.0927,0.0527 -0.15543,0.11682 -0.14335,0.14645 -0.43108,0.34972 -0.49504,0.34972 -0.0266,0 -0.0618,0.035 -0.0782,0.0777 -0.0163,0.0427 -0.0747,0.0777 -0.12952,0.0777 -0.0549,0 -0.11315,0.035 -0.12953,0.0777 -0.0163,0.0427 -0.0672,0.0777 -0.1128,0.0777 -0.0457,0 -0.11803,0.035 -0.16077,0.0777 -0.0427,0.0427 -0.12018,0.0777 -0.17208,0.0777 -0.0519,0 -0.10777,0.035 -0.12421,0.0777 -0.0163,0.0427 -0.0863,0.0777 -0.15542,0.0777 -0.069,0 -0.13903,0.035 -0.15543,0.0777 -0.0163,0.0427 -0.0863,0.0777 -0.15543,0.0777 -0.0691,0 -0.13903,0.035 -0.15543,0.0777 -0.0163,0.0428 -0.083,0.0784 -0.14802,0.0793 -0.065,9.7e-4 -0.16344,0.0359 -0.21876,0.0777 -0.0553,0.0418 -0.15273,0.0761 -0.21649,0.0761 -0.0638,0 -0.15089,0.035 -0.19363,0.0777 -0.0428,0.0427 -0.12019,0.0778 -0.17208,0.0781 -0.0519,1.6e-4 -0.15947,0.0343 -0.23903,0.0758 -0.0795,0.0415 -0.23112,0.0913 -0.33677,0.11074 -0.10571,0.0194 -0.20564,0.0561 -0.22219,0.0815 -0.0166,0.0254 -0.12148,0.0592 -0.23314,0.0752 -0.11166,0.016 -0.27652,0.0617 -0.36631,0.10183 -0.0898,0.04 -0.24451,0.0728 -0.3438,0.0728 -0.0993,0 -0.24731,0.0349 -0.32893,0.0774 -0.0816,0.0426 -0.2798,0.0775 -0.44038,0.0777 -0.1606,1.5e-4 -0.35877,0.0351 -0.44039,0.0777 -0.10411,0.0543 -0.31143,0.0775 -0.69499,0.0777 -0.36782,1.6e-4 -0.56778,0.0215 -0.61135,0.0651 -0.0931,0.0932 -2.33715,0.12517 -2.68303,0.0383 -0.1386,-0.0349 -0.54184,-0.0792 -0.89612,-0.0986 -0.42816,-0.0234 -0.65109,-0.0561 -0.66489,-0.0976 -0.0134,-0.0402 -0.14353,-0.0623 -0.36757,-0.0623 -0.20672,0 -0.38812,-0.0284 -0.44903,-0.0702 -0.0562,-0.0385 -0.23787,-0.0836 -0.40368,-0.10022 -0.16582,-0.0166 -0.32902,-0.0519 -0.36267,-0.0785 -0.0336,-0.0266 -0.15444,-0.0653 -0.26842,-0.0857 -0.11394,-0.0205 -0.23054,-0.0554 -0.25904,-0.0777 -0.0285,-0.0222 -0.13825,-0.056 -0.24391,-0.075 -0.1056,-0.019 -0.25719,-0.0686 -0.33676,-0.11006 -0.0795,-0.0415 -0.17964,-0.0763 -0.22238,-0.0775 -0.0427,-10e-4 -0.12297,-0.0362 -0.17827,-0.0781 -0.0553,-0.0418 -0.15156,-0.0761 -0.21386,-0.0761 -0.0623,0 -0.1423,-0.035 -0.17778,-0.0777 -0.0354,-0.0427 -0.11743,-0.0777 -0.18214,-0.0777 -0.0647,0 -0.13105,-0.035 -0.14745,-0.0777 -0.0165,-0.0427 -0.0872,-0.0777 -0.15727,-0.0777 -0.07,0 -0.16242,-0.035 -0.20516,-0.0777 -0.0428,-0.0427 -0.12316,-0.0777 -0.1787,-0.0777 -0.0555,0 -0.13,-0.035 -0.16547,-0.0777 -0.0354,-0.0428 -0.0974,-0.0777 -0.13749,-0.0777 -0.0401,0 -0.0864,-0.035 -0.10286,-0.0777 -0.0165,-0.0427 -0.0711,-0.0777 -0.12155,-0.0777 -0.0505,0 -0.12076,-0.035 -0.15623,-0.0777 -0.0354,-0.0427 -0.093,-0.0777 -0.12794,-0.0777 -0.0349,0 -0.11947,-0.0462 -0.18795,-0.10262 -0.20973,-0.17294 -0.22227,-0.182 -0.41854,-0.30236 -0.28968,-0.17762 -1.38978,-1.19134 -1.38978,-1.28065 0,-0.0133 -0.0408,-0.0662 -0.0906,-0.11759 -0.18863,-0.19459 -0.37562,-0.44683 -0.37562,-0.50671 0,-0.0342 -0.035,-0.0757 -0.0777,-0.092 -0.0427,-0.0164 -0.0777,-0.0771 -0.0777,-0.13506 0,-0.0578 -0.0229,-0.10526 -0.0509,-0.10526 -0.028,0 -0.0653,-0.0574 -0.0829,-0.1274 -0.0176,-0.0701 -0.0647,-0.15452 -0.10457,-0.18767 -0.04,-0.0331 -0.0726,-0.12452 -0.0726,-0.20303 0,-0.0785 -0.035,-0.17176 -0.0777,-0.20723 -0.0427,-0.0354 -0.0777,-0.13558 -0.0777,-0.22246 0,-0.0869 -0.0408,-0.20303 -0.0906,-0.25813 -0.0846,-0.0934 -0.0906,-0.34732 -0.0906,-3.76394 0,-3.42019 0.006,-3.66979 0.0906,-3.75447 0.0498,-0.0499 0.0906,-0.13319 0.0906,-0.18508 0,-0.0519 0.035,-0.10778 0.0777,-0.12421 0.0427,-0.0165 0.0777,-0.0779 0.0777,-0.13669 0,-0.0587 0.035,-0.12029 0.0777,-0.13669 0.0428,-0.0165 0.0777,-0.0711 0.0777,-0.12156 0,-0.0505 0.035,-0.12075 0.0777,-0.15623 0.0427,-0.0354 0.0777,-0.0974 0.0777,-0.13749 0,-0.0401 0.035,-0.0864 0.0777,-0.10286 0.0427,-0.0165 0.0777,-0.0711 0.0777,-0.12155 0,-0.0504 0.035,-0.12076 0.0777,-0.15623 0.0427,-0.0354 0.0777,-0.095 0.0777,-0.13216 0,-0.0373 0.0291,-0.0994 0.0648,-0.13832 0.0985,-0.10743 0.18972,-0.25811 0.25191,-0.41599 0.0309,-0.0784 0.0753,-0.14247 0.0987,-0.14247 0.0234,0 0.058,-0.0699 0.0768,-0.15543 0.0188,-0.0855 0.0498,-0.15543 0.0689,-0.15543 0.0192,0 0.0927,-0.11074 0.1635,-0.2461 0.0707,-0.13535 0.15816,-0.2769 0.1942,-0.31456 0.036,-0.0376 0.0655,-0.10252 0.0655,-0.1441 0,-0.0416 0.035,-0.089 0.0777,-0.10549 0.0427,-0.0165 0.0777,-0.0711 0.0777,-0.12155 0,-0.0504 0.035,-0.12076 0.0777,-0.15623 0.0427,-0.0354 0.0777,-0.0946 0.0777,-0.13156 0,-0.0369 0.0197,-0.0748 0.0438,-0.0843 0.0473,-0.0186 0.17553,-0.24206 0.27009,-0.47061 0.0324,-0.0784 0.08,-0.14246 0.10571,-0.14246 0.0257,0 0.0467,-0.0438 0.0467,-0.0973 0,-0.0535 0.035,-0.1263 0.0777,-0.16177 0.0427,-0.0354 0.0777,-0.0974 0.0777,-0.1375 0,-0.0401 0.035,-0.0864 0.0777,-0.10286 0.0427,-0.0164 0.0777,-0.0711 0.0777,-0.12155 0,-0.0504 0.035,-0.12076 0.0777,-0.15623 0.0427,-0.0354 0.0777,-0.095 0.0777,-0.13216 0,-0.0373 0.0291,-0.0994 0.0648,-0.13832 0.0904,-0.0986 0.18481,-0.25078 0.24946,-0.40199 0.0302,-0.0706 0.0714,-0.1406 0.0917,-0.15543 0.0202,-0.0148 0.0656,-0.0853 0.10091,-0.15648 0.0353,-0.0712 0.11029,-0.19947 0.16656,-0.28496 0.0562,-0.0855 0.12453,-0.20562 0.15168,-0.26697 0.0272,-0.0614 0.0742,-0.12683 0.10435,-0.14553 0.0303,-0.0187 0.055,-0.08 0.055,-0.13618 0,-0.0562 0.035,-0.11561 0.0777,-0.13201 0.0428,-0.0163 0.0777,-0.0711 0.0777,-0.12156 0,-0.0504 0.035,-0.12075 0.0777,-0.15622 0.0427,-0.0354 0.0777,-0.0974 0.0777,-0.13749 0,-0.0401 0.035,-0.0864 0.0777,-0.10286 0.0427,-0.0165 0.0777,-0.0746 0.0777,-0.12953 0,-0.0549 0.035,-0.11314 0.0777,-0.12952 0.0427,-0.0165 0.0777,-0.0723 0.0777,-0.1242 0,-0.0519 0.0291,-0.12617 0.0648,-0.16502 0.0904,-0.0986 0.18482,-0.25078 0.24947,-0.40199 0.0302,-0.0706 0.071,-0.1406 0.0905,-0.15543 0.0195,-0.0149 0.0939,-0.14312 0.16513,-0.28509 0.0712,-0.14196 0.15285,-0.28356 0.18134,-0.31466 0.0285,-0.0311 0.0984,-0.14809 0.15543,-0.25998 0.057,-0.11188 0.13276,-0.22207 0.16838,-0.24485 0.0356,-0.0228 0.0648,-0.0877 0.0648,-0.14411 0,-0.0564 0.035,-0.11609 0.0777,-0.13249 0.0427,-0.0165 0.0777,-0.0711 0.0777,-0.12155 0,-0.0505 0.035,-0.12076 0.0777,-0.15623 0.0427,-0.0354 0.0777,-0.0974 0.0777,-0.1375 0,-0.0401 0.035,-0.0864 0.0777,-0.10286 0.0427,-0.0164 0.0777,-0.0831 0.0777,-0.14825 0,-0.0651 0.035,-0.13186 0.0777,-0.14826 0.0427,-0.0165 0.0777,-0.0621 0.0777,-0.10137 0,-0.0393 0.0699,-0.16812 0.15543,-0.28613 0.0855,-0.11801 0.15543,-0.25047 0.15543,-0.29435 0,-0.0439 0.035,-0.0933 0.0777,-0.1096 0.0427,-0.0165 0.0777,-0.0723 0.0777,-0.1242 0,-0.0519 0.0291,-0.12518 0.0648,-0.16284 0.0357,-0.0376 0.12131,-0.17337 0.19042,-0.30159 0.0691,-0.12823 0.13953,-0.2448 0.15649,-0.25905 0.0169,-0.0143 0.0598,-0.0842 0.0951,-0.15543 0.0353,-0.0712 0.11028,-0.19947 0.16656,-0.28495 0.0562,-0.0855 0.12452,-0.20561 0.15168,-0.26696 0.0272,-0.0614 0.0742,-0.12684 0.10434,-0.14554 0.0303,-0.0187 0.055,-0.0792 0.055,-0.13455 0,-0.0553 0.035,-0.10057 0.0777,-0.10057 0.0486,0 0.0777,-0.0491 0.0777,-0.13116 0,-0.0721 0.035,-0.14457 0.0777,-0.16097 0.0428,-0.0164 0.0777,-0.0739 0.0777,-0.12789 0,-0.0957 -0.13787,-0.0981 -5.48472,-0.0981 h -5.48472 l -0.20139,0.40014 c -0.11074,0.22008 -0.23635,0.43989 -0.27911,0.48848 -0.15582,0.17714 -0.20723,0.24758 -0.20723,0.28401 0,0.0205 -0.14571,0.17632 -0.32381,0.34637 -0.37906,0.36196 -0.69562,0.58059 -1.19056,0.82228 l -0.24504,0.11966 -0.001,17.86137 -0.001,17.86137 h 4.02962 c 3.56327,0 4.04295,0.009 4.14477,0.0807 0.11447,0.0802 0.11515,0.0895 0.11515,1.57466 0,1.31453 -0.0103,1.49776 -0.0819,1.52544 -0.11234,0.0431 -19.63164,0.04 -19.67479,-0.003 z m -7.27153,-16.96881 c 0.0623,-0.0338 0.39182,-0.0719 0.73239,-0.0845 0.42935,-0.0159 0.64098,-0.0447 0.69018,-0.0938 0.045,-0.045 0.19016,-0.071 0.39767,-0.071 0.22721,0 0.34637,-0.0237 0.39122,-0.0777 0.0408,-0.0491 0.15516,-0.0777 0.31165,-0.0777 0.17191,0 0.25624,-0.0237 0.27698,-0.0777 0.0194,-0.0507 0.10012,-0.0777 0.23235,-0.0777 0.11142,0 0.22913,-0.0321 0.26164,-0.0712 0.0326,-0.0392 0.15196,-0.0861 0.2654,-0.10423 0.11348,-0.0182 0.20626,-0.056 0.20626,-0.0842 0,-0.0281 0.0488,-0.0512 0.10857,-0.0512 0.0597,0 0.17046,-0.033 0.24609,-0.0733 0.0757,-0.0403 0.24244,-0.12449 0.37066,-0.18712 0.31312,-0.15292 0.79687,-0.42122 0.82896,-0.45976 0.0576,-0.0691 0.36205,-0.26425 0.41238,-0.26425 0.0296,0 0.0539,-0.024 0.0539,-0.0535 0,-0.0294 0.0369,-0.0677 0.0821,-0.0849 0.10526,-0.0403 0.74693,-0.68063 0.74693,-0.74529 0,-0.0269 0.035,-0.0489 0.0777,-0.0489 0.0427,0 0.0777,-0.0321 0.0777,-0.0713 0,-0.0393 0.035,-0.10045 0.0777,-0.13586 0.0427,-0.0354 0.0777,-0.10903 0.0777,-0.16341 0,-0.0544 0.035,-0.11234 0.0777,-0.12872 0.0427,-0.0165 0.0778,-0.0914 0.0781,-0.16675 1.4e-4,-0.0753 0.0352,-0.20371 0.0777,-0.28534 0.0549,-0.10514 0.0774,-0.31287 0.0774,-0.71239 v -0.56397 h -8.0564 -8.0564 v 0.79751 c 0,0.66109 0.0133,0.8026 0.0777,0.82732 0.0427,0.0163 0.0777,0.0888 0.0777,0.16097 0,0.0721 0.0227,0.13116 0.0505,0.13116 0.0278,0 0.0888,0.074 0.13561,0.16463 0.0964,0.18633 0.77871,0.88489 0.91573,0.93746 0.0494,0.019 0.0898,0.0585 0.0898,0.0879 0,0.0294 0.0258,0.0535 0.0574,0.0535 0.0315,0 0.14561,0.0699 0.25355,0.15543 0.10789,0.0855 0.22037,0.15543 0.24986,0.15543 0.0295,0 0.0845,0.0295 0.12206,0.0656 0.0888,0.085 0.8292,0.45253 0.91176,0.45253 0.0349,0 0.0634,0.0229 0.0634,0.0509 0,0.028 0.0625,0.0665 0.13902,0.0857 0.0765,0.0192 0.19887,0.0662 0.272,0.10434 0.0731,0.0382 0.18258,0.0696 0.24321,0.0697 0.0606,1.6e-4 0.13925,0.0353 0.17472,0.0781 0.0354,0.0427 0.14492,0.0777 0.24319,0.0777 0.0983,0 0.21367,0.035 0.25641,0.0777 0.045,0.045 0.17158,0.0777 0.30081,0.0777 0.13511,0 0.24854,0.0306 0.2876,0.0777 0.0446,0.0537 0.16332,0.0777 0.38502,0.0777 0.20161,0 0.35781,0.0282 0.42107,0.0761 0.0709,0.0536 0.24608,0.0774 0.59276,0.0807 0.27088,0.002 0.57374,0.0354 0.67353,0.0731 0.24114,0.0912 1.72146,0.10652 1.88151,0.0194 z m 36.01724,-0.0146 c 0.12435,-0.0448 0.41443,-0.0762 0.72534,-0.0785 0.37034,-0.002 0.54677,-0.0256 0.61866,-0.08 0.0619,-0.0469 0.21755,-0.0761 0.40522,-0.0761 0.20174,0 0.33092,-0.0263 0.38238,-0.0777 0.045,-0.045 0.17158,-0.0777 0.30081,-0.0777 0.13511,0 0.24854,-0.0306 0.2876,-0.0777 0.0354,-0.0427 0.13879,-0.0777 0.22958,-0.0777 0.0907,0 0.21034,-0.0343 0.26567,-0.0761 0.0553,-0.0418 0.1436,-0.0768 0.19619,-0.0777 0.0526,-9.7e-4 0.1575,-0.0335 0.23314,-0.0723 0.28723,-0.14772 0.63525,-0.29193 0.70449,-0.29193 0.0396,0 0.0798,-0.0197 0.0893,-0.0438 0.0171,-0.0433 0.057,-0.0666 0.54424,-0.31885 0.1376,-0.0712 0.26452,-0.1491 0.28204,-0.17308 0.03,-0.0411 0.18593,-0.13924 0.35459,-0.22322 0.0741,-0.0369 1.01411,-0.97472 1.11601,-1.11343 0.0968,-0.13177 0.28496,-0.5478 0.28496,-0.63009 0,-0.045 0.0233,-0.0963 0.0518,-0.11394 0.0301,-0.0185 0.0518,-0.30277 0.0518,-0.67659 v -0.64457 h -8.06281 -8.06281 l 0.0222,0.78078 c 0.0134,0.46936 0.0441,0.79483 0.0771,0.81601 0.0303,0.0193 0.0729,0.0935 0.0949,0.16474 0.0219,0.0712 0.0543,0.14119 0.0719,0.15543 0.0176,0.0143 0.0992,0.125 0.1814,0.24611 0.0822,0.1211 0.16952,0.22019 0.19414,0.22019 0.0246,0 0.0448,0.0233 0.0448,0.0518 0,0.0285 0.0466,0.0984 0.10366,0.15543 0.057,0.057 0.12693,0.10366 0.15543,0.10366 0.0284,0 0.0518,0.035 0.0518,0.0777 0,0.0427 0.035,0.0777 0.0777,0.0777 0.0427,0 0.0777,0.0324 0.0777,0.0721 0,0.0397 0.0583,0.0867 0.12952,0.10457 0.0712,0.0178 0.12953,0.0554 0.12953,0.0833 0,0.028 0.0338,0.0508 0.0751,0.0508 0.0414,0 0.0938,0.0309 0.11657,0.0687 0.0227,0.0378 0.0765,0.0847 0.11916,0.10423 0.0427,0.0195 0.14766,0.0818 0.23314,0.13841 0.0855,0.0566 0.21955,0.12856 0.29791,0.15993 0.0784,0.0313 0.14247,0.0762 0.14247,0.0997 0,0.0234 0.0699,0.0579 0.15543,0.0768 0.0855,0.0187 0.15543,0.053 0.15543,0.076 0,0.0231 0.0816,0.0573 0.18133,0.076 0.0998,0.0187 0.18134,0.0562 0.18134,0.0834 0,0.0272 0.0291,0.0503 0.0648,0.0512 0.0357,9.7e-4 0.158,0.0467 0.27199,0.10182 0.11394,0.0551 0.25969,0.10092 0.32381,0.10183 0.0641,9.7e-4 0.11657,0.024 0.11657,0.0512 0,0.0272 0.0874,0.0635 0.19428,0.0808 0.10686,0.0173 0.25617,0.0649 0.33181,0.10595 0.0757,0.041 0.23374,0.0746 0.35135,0.0746 0.14226,0 0.22379,0.0261 0.24364,0.0777 0.0223,0.0581 0.11696,0.0782 0.37399,0.0793 0.22015,0.001 0.38041,0.029 0.44474,0.0777 0.0735,0.0555 0.24779,0.0762 0.64763,0.0768 0.36843,4.8e-4 0.58935,0.0242 0.67657,0.0726 0.18687,0.10366 1.60726,0.108 1.89105,0.006 z m -28.78024,-8.54373 c 0,-0.23051 -0.0236,-0.34992 -0.0777,-0.39492 -0.0427,-0.0354 -0.0777,-0.10571 -0.0777,-0.15623 0,-0.0505 -0.035,-0.10514 -0.0777,-0.12155 -0.0427,-0.0165 -0.0777,-0.0888 -0.0777,-0.16097 0,-0.0821 -0.0291,-0.13116 -0.0777,-0.13116 -0.0427,0 -0.0777,-0.0438 -0.0777,-0.0973 0,-0.0535 -0.035,-0.12631 -0.0777,-0.16179 -0.0428,-0.0354 -0.0777,-0.0937 -0.0777,-0.12952 0,-0.0358 -0.035,-0.0941 -0.0777,-0.12952 -0.0427,-0.0354 -0.0777,-0.10822 -0.0777,-0.16177 0,-0.0535 -0.0239,-0.0973 -0.0531,-0.0973 -0.0293,0 -0.0739,-0.055 -0.0995,-0.12204 -0.0544,-0.14316 -0.36929,-0.66904 -0.42358,-0.70744 -0.0206,-0.0145 -0.0534,-0.0903 -0.073,-0.16839 -0.0195,-0.078 -0.0549,-0.14195 -0.0783,-0.14195 -0.0236,0 -0.0589,-0.0509 -0.0785,-0.11303 -0.0198,-0.0622 -0.10286,-0.20553 -0.18482,-0.31863 -0.0819,-0.11314 -0.14896,-0.23425 -0.14896,-0.26922 0,-0.035 -0.035,-0.0927 -0.0777,-0.12809 -0.0427,-0.0354 -0.0777,-0.10583 -0.0777,-0.15624 0,-0.0504 -0.035,-0.10515 -0.0777,-0.12156 -0.0427,-0.0164 -0.0777,-0.0626 -0.0777,-0.10285 0,-0.0401 -0.035,-0.10206 -0.0777,-0.1375 -0.0428,-0.0354 -0.0777,-0.10583 -0.0777,-0.15623 0,-0.0505 -0.035,-0.10514 -0.0777,-0.12155 -0.0427,-0.0165 -0.0777,-0.076 -0.0777,-0.1325 0,-0.0564 -0.0291,-0.12131 -0.0648,-0.1441 -0.0357,-0.0227 -0.11852,-0.14635 -0.18416,-0.27458 -0.0656,-0.12823 -0.16445,-0.30309 -0.21958,-0.38857 -0.0551,-0.0855 -0.12938,-0.21372 -0.16496,-0.28495 -0.0356,-0.0712 -0.0942,-0.16033 -0.13008,-0.19799 -0.036,-0.0376 -0.0654,-0.10172 -0.0654,-0.14248 0,-0.0407 -0.0217,-0.0741 -0.0483,-0.0741 -0.0265,0 -0.0646,-0.0514 -0.0846,-0.11417 -0.0199,-0.0627 -0.0681,-0.14605 -0.10709,-0.18503 -0.039,-0.039 -0.0709,-0.11337 -0.0709,-0.16526 0,-0.0519 -0.035,-0.10777 -0.0777,-0.12419 -0.0427,-0.0165 -0.0777,-0.0779 -0.0777,-0.1367 0,-0.0587 -0.035,-0.12028 -0.0777,-0.13669 -0.0427,-0.0165 -0.0777,-0.0714 -0.0777,-0.12236 0,-0.0509 -0.035,-0.10594 -0.0777,-0.12235 -0.0428,-0.0165 -0.0777,-0.0746 -0.0777,-0.12952 0,-0.0549 -0.035,-0.11315 -0.0777,-0.12953 -0.0428,-0.0164 -0.0777,-0.0888 -0.0777,-0.16098 0,-0.0721 -0.0239,-0.13114 -0.0531,-0.13114 -0.0291,0 -0.0761,-0.0525 -0.10434,-0.11657 -0.0282,-0.0641 -0.0973,-0.18651 -0.15337,-0.272 -0.0561,-0.0855 -0.12722,-0.21325 -0.15791,-0.28391 -0.0308,-0.0706 -0.0719,-0.14059 -0.0914,-0.15543 -0.0195,-0.0148 -0.081,-0.11613 -0.13653,-0.22514 -0.0555,-0.10903 -0.14293,-0.24662 -0.19428,-0.30583 -0.0513,-0.0592 -0.0934,-0.13619 -0.0934,-0.17108 0,-0.0349 -0.035,-0.0925 -0.0777,-0.12795 -0.0427,-0.0354 -0.0777,-0.10823 -0.0777,-0.16177 0,-0.0535 -0.0217,-0.0973 -0.0482,-0.0973 -0.0265,0 -0.10229,-0.11074 -0.16838,-0.2461 -0.0662,-0.13535 -0.14935,-0.2769 -0.18497,-0.31456 -0.0357,-0.0376 -0.0648,-0.11097 -0.0648,-0.16283 0,-0.0519 -0.035,-0.10777 -0.0777,-0.1242 -0.0427,-0.0164 -0.0777,-0.0747 -0.0777,-0.12953 0,-0.0549 -0.035,-0.11314 -0.0777,-0.12952 -0.0427,-0.0163 -0.0777,-0.0626 -0.0777,-0.10286 0,-0.0401 -0.035,-0.10205 -0.0777,-0.13748 -0.0427,-0.0354 -0.0777,-0.10583 -0.0777,-0.15624 0,-0.0504 -0.035,-0.10514 -0.0777,-0.12156 -0.0427,-0.0163 -0.0777,-0.0725 -0.0777,-0.12469 0,-0.0522 -0.0261,-0.12091 -0.0578,-0.1527 -0.0646,-0.0646 -0.16987,-0.24018 -0.24955,-0.41625 -0.029,-0.0641 -0.0747,-0.11657 -0.10171,-0.11657 -0.027,0 -0.0643,-0.0699 -0.0831,-0.15543 -0.0187,-0.0855 -0.0534,-0.15543 -0.0768,-0.15543 -0.0234,0 -0.0679,-0.0641 -0.0987,-0.14248 -0.0622,-0.15789 -0.15346,-0.30858 -0.25192,-0.41599 -0.0357,-0.0389 -0.0648,-0.0939 -0.0648,-0.12246 0,-0.0285 -0.035,-0.0867 -0.0777,-0.12953 -0.0428,-0.0427 -0.0777,-0.12018 -0.0777,-0.17208 0,-0.0519 -0.035,-0.10777 -0.0777,-0.1242 -0.0427,-0.0165 -0.0777,-0.0626 -0.0777,-0.10286 0,-0.0401 -0.035,-0.10206 -0.0777,-0.1375 -0.0427,-0.0354 -0.0777,-0.10583 -0.0777,-0.15621 0,-0.0505 -0.0328,-0.10435 -0.0729,-0.1197 -0.0853,-0.0327 -0.238,0.11846 -0.238,0.23559 0,0.0446 -0.035,0.0945 -0.0777,0.11086 -0.0428,0.0163 -0.0777,0.0725 -0.0777,0.1247 0,0.0522 -0.0261,0.1209 -0.0578,0.15269 -0.0646,0.0646 -0.16986,0.24019 -0.24954,0.41626 -0.029,0.0641 -0.0767,0.11657 -0.10583,0.11657 -0.0293,0 -0.0531,0.0449 -0.0531,0.0999 0,0.055 -0.035,0.13489 -0.0777,0.17764 -0.0427,0.0427 -0.0777,0.0936 -0.0777,0.11303 0,0.0194 -0.11657,0.22835 -0.25905,0.46422 -0.14247,0.23588 -0.25904,0.45478 -0.25904,0.48644 0,0.0317 -0.0222,0.0576 -0.0493,0.0576 -0.0271,0 -0.10274,0.11657 -0.16807,0.25905 -0.0654,0.14248 -0.14812,0.25905 -0.18391,0.25905 -0.0358,0 -0.065,0.059 -0.065,0.13114 0,0.0721 -0.035,0.14458 -0.0777,0.16099 -0.0427,0.0164 -0.0777,0.0726 -0.0777,0.12483 0,0.0522 -0.0247,0.11029 -0.055,0.12902 -0.0303,0.0187 -0.0773,0.0842 -0.10435,0.14553 -0.0272,0.0614 -0.0953,0.18149 -0.15146,0.26697 -0.0561,0.0855 -0.1272,0.21324 -0.1579,0.2839 -0.0307,0.0706 -0.0719,0.1406 -0.0914,0.15543 -0.0195,0.0149 -0.0934,0.1377 -0.16405,0.27305 -0.0706,0.13536 -0.14456,0.2461 -0.16427,0.2461 -0.0196,0 -0.0512,0.0699 -0.0699,0.15542 -0.0187,0.0855 -0.0533,0.15543 -0.0768,0.15543 -0.0234,0 -0.0679,0.0641 -0.0987,0.14248 -0.0622,0.15788 -0.15346,0.30858 -0.25192,0.41599 -0.0357,0.0388 -0.0648,0.10468 -0.0648,0.14628 0,0.0416 -0.035,0.089 -0.0777,0.10549 -0.0427,0.0164 -0.0777,0.0726 -0.0777,0.12484 0,0.0522 -0.0248,0.11029 -0.055,0.12902 -0.0303,0.0187 -0.0779,0.0842 -0.10583,0.14553 -0.0787,0.17284 -0.18402,0.34761 -0.24762,0.41121 -0.0318,0.0318 -0.0578,0.10046 -0.0578,0.1527 0,0.0522 -0.035,0.10834 -0.0777,0.12471 -0.0427,0.0165 -0.0777,0.0726 -0.0777,0.12483 0,0.0522 -0.0248,0.11029 -0.055,0.12902 -0.0303,0.0187 -0.0773,0.0842 -0.10434,0.14553 -0.0272,0.0614 -0.0953,0.18149 -0.15147,0.26697 -0.0561,0.0855 -0.1272,0.21325 -0.15789,0.2839 -0.0308,0.0706 -0.0719,0.14061 -0.0914,0.15543 -0.0196,0.0149 -0.0934,0.1377 -0.16406,0.27306 -0.0706,0.13535 -0.14641,0.24609 -0.16838,0.24609 -0.0219,0 -0.04,0.0319 -0.04,0.0708 0,0.0388 -0.0466,0.13 -0.10365,0.20245 -0.057,0.0725 -0.10366,0.16636 -0.10366,0.20868 0,0.0423 -0.035,0.0904 -0.0777,0.10674 -0.0427,0.0163 -0.0777,0.0746 -0.0777,0.12953 0,0.0549 -0.035,0.11315 -0.0777,0.12952 -0.0427,0.0165 -0.0777,0.0746 -0.0777,0.12952 0,0.0549 -0.035,0.11315 -0.0777,0.12953 -0.0427,0.0165 -0.0777,0.078 -0.0777,0.13669 0,0.0587 -0.035,0.1203 -0.0777,0.1367 -0.0427,0.0164 -0.0777,0.0711 -0.0777,0.12155 0,0.0504 -0.035,0.12076 -0.0777,0.15623 -0.0427,0.0354 -0.0777,0.0974 -0.0777,0.1375 0,0.0401 -0.035,0.0864 -0.0777,0.10285 -0.0427,0.0165 -0.0777,0.0724 -0.0777,0.1242 0,0.0519 -0.035,0.12935 -0.0777,0.17209 -0.0427,0.0427 -0.0777,0.0936 -0.0777,0.11303 0,0.0194 -0.11657,0.22835 -0.25905,0.46423 -0.14247,0.23588 -0.25904,0.45477 -0.25904,0.48643 0,0.0317 -0.021,0.0576 -0.0468,0.0576 -0.0257,0 -0.072,0.0641 -0.10285,0.14247 -0.0622,0.15789 -0.15347,0.30858 -0.25192,0.41599 -0.0357,0.0389 -0.0648,0.10468 -0.0648,0.1463 0,0.0416 -0.035,0.089 -0.0777,0.10548 -0.0427,0.0165 -0.0777,0.0711 -0.0777,0.12156 0,0.0504 -0.035,0.12075 -0.0777,0.15622 -0.0427,0.0354 -0.0777,0.0937 -0.0777,0.12952 0,0.0358 -0.035,0.0941 -0.0777,0.12954 -0.0577,0.0479 -0.0777,0.17592 -0.0777,0.49853 v 0.43404 h 8.0564 8.0564 z m 35.90407,-0.006 c 0,-0.28264 -0.0247,-0.37609 -0.15543,-0.58859 -0.0855,-0.13893 -0.15544,-0.27917 -0.15544,-0.31164 0,-0.0325 -0.021,-0.0591 -0.0467,-0.0591 -0.0257,0 -0.0725,-0.0641 -0.10378,-0.14248 -0.0313,-0.0784 -0.1032,-0.21242 -0.15973,-0.29791 -0.0565,-0.0855 -0.12492,-0.20562 -0.15208,-0.26696 -0.0272,-0.0614 -0.0742,-0.12685 -0.10435,-0.14554 -0.0303,-0.0188 -0.055,-0.0768 -0.055,-0.12901 0,-0.0522 -0.035,-0.10846 -0.0777,-0.12484 -0.0427,-0.0164 -0.0777,-0.078 -0.0777,-0.1367 0,-0.0587 -0.035,-0.12029 -0.0777,-0.13669 -0.0427,-0.0164 -0.0777,-0.064 -0.0777,-0.10571 0,-0.0417 -0.035,-0.11086 -0.0777,-0.15358 -0.0427,-0.0427 -0.0777,-0.12268 -0.0777,-0.17763 0,-0.055 -0.035,-0.0999 -0.0777,-0.0999 -0.0427,0 -0.0777,-0.0449 -0.0777,-0.0999 0,-0.055 -0.035,-0.1349 -0.0777,-0.17764 -0.0427,-0.0427 -0.0777,-0.0999 -0.0777,-0.12688 0,-0.0271 -0.035,-0.0782 -0.0777,-0.11371 -0.0427,-0.0354 -0.0777,-0.10823 -0.0777,-0.16176 0,-0.0535 -0.0238,-0.0973 -0.0529,-0.0973 -0.0291,0 -0.0811,-0.0641 -0.11552,-0.14248 -0.0344,-0.0784 -0.0769,-0.15414 -0.0945,-0.16839 -0.0319,-0.0259 -0.0652,-0.0858 -0.30691,-0.55287 -0.0712,-0.1376 -0.15864,-0.26882 -0.19429,-0.29161 -0.0356,-0.0227 -0.0648,-0.0877 -0.0648,-0.1441 0,-0.0565 -0.035,-0.11609 -0.0777,-0.13249 -0.0427,-0.0165 -0.0777,-0.0739 -0.0777,-0.1279 0,-0.0539 -0.0229,-0.0981 -0.0508,-0.0981 -0.028,0 -0.0653,-0.0574 -0.0829,-0.12739 -0.0176,-0.0701 -0.0647,-0.15453 -0.10457,-0.18768 -0.04,-0.0332 -0.0727,-0.1016 -0.0727,-0.15201 0,-0.0505 -0.035,-0.10515 -0.0777,-0.12156 -0.0427,-0.0163 -0.0777,-0.0779 -0.0777,-0.1367 0,-0.0587 -0.035,-0.12028 -0.0777,-0.13668 -0.0427,-0.0165 -0.0777,-0.0714 -0.0777,-0.12236 0,-0.0508 -0.035,-0.10594 -0.0777,-0.12236 -0.0427,-0.0163 -0.0777,-0.0779 -0.0777,-0.13669 0,-0.0587 -0.035,-0.12029 -0.0777,-0.13669 -0.0427,-0.0165 -0.0777,-0.0533 -0.0777,-0.0818 0,-0.0286 -0.11657,-0.24502 -0.25905,-0.48089 -0.14248,-0.23589 -0.25905,-0.45229 -0.25905,-0.48091 0,-0.0286 -0.035,-0.0655 -0.0777,-0.0818 -0.0427,-0.0165 -0.0777,-0.0743 -0.0777,-0.12872 0,-0.0544 -0.035,-0.12793 -0.0777,-0.1634 -0.0427,-0.0354 -0.0777,-0.0866 -0.0777,-0.11372 0,-0.0271 -0.035,-0.0841 -0.0777,-0.12688 -0.0427,-0.0427 -0.0777,-0.12019 -0.0777,-0.17209 0,-0.0519 -0.035,-0.10777 -0.0777,-0.1242 -0.0428,-0.0165 -0.0777,-0.0779 -0.0777,-0.13669 0,-0.0587 -0.035,-0.1203 -0.0777,-0.1367 -0.0427,-0.0164 -0.0777,-0.0594 -0.0777,-0.0957 0,-0.0362 -0.035,-0.0949 -0.0777,-0.13032 -0.0427,-0.0354 -0.0777,-0.10572 -0.0777,-0.15623 0,-0.0505 -0.035,-0.10514 -0.0777,-0.12156 -0.0427,-0.0164 -0.0777,-0.0888 -0.0777,-0.16097 0,-0.0721 -0.0239,-0.13115 -0.0532,-0.13115 -0.0291,0 -0.0761,-0.0525 -0.10434,-0.11657 -0.0282,-0.0641 -0.0975,-0.18652 -0.15399,-0.272 -0.0565,-0.0855 -0.12835,-0.21955 -0.15972,-0.29791 -0.0313,-0.0784 -0.0758,-0.14247 -0.0987,-0.14247 -0.0229,0 -0.0673,-0.0641 -0.0987,-0.14248 -0.0313,-0.0784 -0.1032,-0.21242 -0.15974,-0.29791 -0.0564,-0.0855 -0.12491,-0.20562 -0.15208,-0.26696 -0.0272,-0.0614 -0.0742,-0.12684 -0.10434,-0.14554 -0.0303,-0.0187 -0.055,-0.0768 -0.055,-0.12901 0,-0.0522 -0.035,-0.10845 -0.0777,-0.12484 -0.0427,-0.0165 -0.0777,-0.0743 -0.0777,-0.12872 0,-0.0544 -0.035,-0.12793 -0.0777,-0.16341 -0.0427,-0.0354 -0.0777,-0.0966 -0.0777,-0.13586 0,-0.0392 -0.0229,-0.0713 -0.0509,-0.0713 -0.028,0 -0.0652,-0.0574 -0.0829,-0.1274 -0.0176,-0.0701 -0.0647,-0.15453 -0.10457,-0.18767 -0.0399,-0.0331 -0.0726,-0.1048 -0.0726,-0.15919 0,-0.0544 -0.035,-0.11234 -0.0777,-0.12872 -0.0427,-0.0165 -0.0777,-0.0594 -0.0777,-0.0957 0,-0.0362 -0.035,-0.0949 -0.0777,-0.13033 -0.0427,-0.0354 -0.0777,-0.10571 -0.0777,-0.15623 0,-0.0505 -0.035,-0.10514 -0.0777,-0.12155 -0.0427,-0.0165 -0.0777,-0.0639 -0.0777,-0.10549 0,-0.0416 -0.0291,-0.10685 -0.0648,-0.14501 -0.0357,-0.0382 -0.12256,-0.17972 -0.1932,-0.31456 -0.0706,-0.13484 -0.15804,-0.24517 -0.1942,-0.24517 -0.0707,0 -0.37418,0.44976 -0.37581,0.55694 -4.8e-4,0.0357 -0.0221,0.0648 -0.0478,0.0648 -0.0257,0 -0.072,0.0641 -0.10286,0.14248 -0.0741,0.18798 -0.17196,0.34 -0.25191,0.39114 -0.0357,0.0227 -0.0648,0.0985 -0.0648,0.16839 0,0.0783 -0.0298,0.12695 -0.0777,0.12695 -0.0486,0 -0.0777,0.0491 -0.0777,0.13114 0,0.0721 -0.035,0.14457 -0.0777,0.16097 -0.0427,0.0165 -0.0777,0.0739 -0.0777,0.1279 0,0.0539 -0.021,0.0981 -0.0467,0.0981 -0.0257,0 -0.0711,0.0699 -0.10091,0.15543 -0.0298,0.0855 -0.0787,0.15542 -0.10869,0.15542 -0.0299,0 -0.0545,0.0453 -0.0545,0.10058 0,0.0553 -0.0248,0.11586 -0.055,0.13456 -0.0303,0.0187 -0.0772,0.0842 -0.10434,0.14553 -0.0272,0.0614 -0.0953,0.18148 -0.15146,0.26697 -0.0561,0.0855 -0.1272,0.21324 -0.15791,0.2839 -0.0307,0.0706 -0.0723,0.1406 -0.0925,0.15542 -0.0201,0.0149 -0.0651,0.0853 -0.1,0.1565 -0.065,0.13305 -0.0917,0.1774 -0.33608,0.55955 -0.0784,0.12253 -0.14248,0.25731 -0.14248,0.29953 0,0.0422 -0.035,0.0902 -0.0777,0.10652 -0.0427,0.0163 -0.0777,0.0746 -0.0777,0.12952 0,0.0548 -0.035,0.11314 -0.0777,0.12953 -0.0427,0.0164 -0.0777,0.0714 -0.0777,0.12235 0,0.0509 -0.035,0.10594 -0.0777,0.12236 -0.0427,0.0164 -0.0777,0.0779 -0.0777,0.13668 0,0.0587 -0.035,0.12029 -0.0777,0.13669 -0.0427,0.0164 -0.0777,0.0723 -0.0777,0.1242 0,0.0519 -0.0304,0.12518 -0.0674,0.16284 -0.0371,0.0376 -0.12078,0.17921 -0.18595,0.31456 -0.0651,0.13535 -0.13463,0.24609 -0.15435,0.24609 -0.0197,0 -0.0629,0.0641 -0.0958,0.14248 -0.033,0.0784 -0.13107,0.25905 -0.21794,0.40153 -0.0869,0.14247 -0.18689,0.31733 -0.2223,0.38857 -0.0354,0.0712 -0.0809,0.14166 -0.10103,0.15648 -0.0201,0.0149 -0.0618,0.0848 -0.0924,0.15543 -0.0308,0.0706 -0.10172,0.19841 -0.1579,0.2839 -0.0561,0.0855 -0.12517,0.20788 -0.15337,0.272 -0.0282,0.0641 -0.0752,0.11657 -0.10435,0.11657 -0.0293,0 -0.0531,0.0438 -0.0531,0.0973 0,0.0535 -0.0327,0.1244 -0.0727,0.15755 -0.0399,0.0331 -0.087,0.11761 -0.10458,0.18768 -0.0176,0.0701 -0.0548,0.12739 -0.0829,0.12739 -0.028,0 -0.0509,0.0441 -0.0509,0.0981 0,0.0539 -0.035,0.11154 -0.0777,0.1279 -0.0428,0.0165 -0.0777,0.0779 -0.0777,0.1367 0,0.0587 -0.035,0.12028 -0.0777,0.13668 -0.0428,0.0165 -0.0777,0.0723 -0.0777,0.12421 0,0.0519 -0.0291,0.12616 -0.0648,0.16501 -0.0984,0.10743 -0.18971,0.25812 -0.25191,0.41601 -0.0308,0.0784 -0.0771,0.14246 -0.10285,0.14246 -0.0257,0 -0.0468,0.0333 -0.0468,0.0741 0,0.0407 -0.0291,0.10514 -0.0648,0.14326 -0.0356,0.0381 -0.11017,0.15809 -0.16569,0.26666 -0.0555,0.10857 -0.14294,0.24583 -0.19428,0.30503 -0.0513,0.0592 -0.0934,0.14821 -0.0934,0.19779 0,0.0496 -0.035,0.10355 -0.0777,0.11997 -0.0427,0.0163 -0.0777,0.0779 -0.0777,0.1367 0,0.0587 -0.0329,0.11948 -0.073,0.13489 -0.0401,0.0154 -0.0872,0.0846 -0.10457,0.1538 -0.0174,0.0692 -0.0544,0.12579 -0.0824,0.12579 -0.028,0 -0.0509,0.0473 -0.0509,0.10525 0,0.0578 -0.035,0.11867 -0.0777,0.13507 -0.0427,0.0165 -0.0777,0.0711 -0.0777,0.12155 0,0.0505 -0.0327,0.11886 -0.0727,0.15201 -0.04,0.0332 -0.087,0.11761 -0.10457,0.18768 -0.0176,0.0701 -0.0548,0.1274 -0.0829,0.1274 -0.028,0 -0.0509,0.0441 -0.0509,0.0981 0,0.0539 -0.035,0.11155 -0.0777,0.1279 -0.0427,0.0165 -0.0777,0.0639 -0.0777,0.10549 0,0.0416 -0.0291,0.10685 -0.0648,0.14489 -0.0357,0.0381 -0.11063,0.16216 -0.1667,0.2757 -0.0561,0.1136 -0.14349,0.26205 -0.19428,0.33001 -0.069,0.0924 -0.0923,0.21984 -0.0923,0.50515 v 0.38158 h 8.05641 8.0564 z M 247.9585,206.39409 c 0.26977,-0.13059 0.62951,-0.48081 0.62951,-0.61286 0,-0.05 0.035,-0.12004 0.0777,-0.15552 0.0476,-0.0394 0.0777,-0.15308 0.0777,-0.29292 0,-0.15525 -0.0249,-0.23798 -0.0777,-0.25825 -0.0427,-0.0165 -0.0777,-0.0789 -0.0777,-0.13886 0,-0.0659 -0.11645,-0.21742 -0.2944,-0.38303 -0.22957,-0.21365 -0.33511,-0.27624 -0.47925,-0.28421 -0.3511,-0.0194 -0.65141,0.0182 -0.73291,0.0918 -0.045,0.0406 -0.1,0.0738 -0.12223,0.0738 -0.061,0 -0.28626,0.22541 -0.28728,0.28755 -4.9e-4,0.0299 -0.0296,0.0831 -0.0648,0.11825 -0.11625,0.11625 -0.17335,0.48223 -0.11856,0.75992 0.0399,0.20232 0.10286,0.31113 0.28729,0.49682 0.12991,0.13078 0.29934,0.25362 0.37652,0.27298 0.0771,0.0194 0.14032,0.0581 0.14032,0.0861 0,0.0925 0.42961,0.0528 0.66573,-0.0616 z m -29.63894,0.59349 c -1.20691,-0.0157 -1.28407,-0.0224 -1.33491,-0.11744 -0.0347,-0.0649 -0.049,-0.62294 -0.0402,-1.56635 l 0.0137,-1.46552 1.59316,-0.0137 1.59314,-0.0137 v 1.55198 c 0,0.85359 -0.0175,1.56274 -0.0389,1.5759 -0.0841,0.0518 -0.55852,0.0648 -1.78609,0.0488 z m 58.09325,-0.002 c -1.08605,-0.0127 -1.27963,-0.027 -1.36,-0.0997 -0.0862,-0.078 -0.0937,-0.2022 -0.0937,-1.5478 0,-1.28628 0.0103,-1.4668 0.0819,-1.49446 0.045,-0.0173 0.7515,-0.0314 1.56983,-0.0314 1.08814,0 1.50456,0.0167 1.55003,0.0622 0.0895,0.0895 0.0878,2.7643 -0.002,2.95435 -0.0595,0.1262 -0.2653,0.21585 -0.42161,0.1837 -0.0321,-0.007 -0.62812,-0.0187 -1.32457,-0.0269 z"
       id="path1106" />
  </g>
</svg>
